<svg width="108" height="117" viewBox="0 0 108 117" fill="none" xmlns="http://www.w3.org/2000/svg">
<g clip-path="url(#clip0_9_767)">
<rect width="108" height="117" fill="#E4E2DE"/>
<path d="M2.34041 32.1639C1.33576 32.1639 0.331107 31.6837 -0.171219 30.7234L-14.2363 -0.00813477L-48.8968 3.83332C-49.9014 3.83332 -50.9061 3.35316 -51.4084 2.87298C-51.9107 1.91262 -51.9107 0.952255 -51.4084 0.472075L-30.8131 -26.418L-51.4084 -53.3082C-51.9107 -54.2685 -51.9107 -55.2289 -51.4084 -55.7091C-50.9061 -56.6694 -49.9014 -57.1496 -48.8968 -56.6694L-14.2363 -52.828L-0.171219 -83.5595C0.833432 -85.4802 3.84739 -85.4802 4.34972 -83.5595L18.4149 -52.828L53.0753 -56.6694C54.08 -56.6694 55.0846 -56.1892 55.587 -55.7091C56.0893 -54.7487 56.0893 -53.7883 55.587 -53.3082L34.9916 -26.418L55.0846 -0.00813477C55.5869 0.472045 56.0893 0.952196 56.0893 1.91256C56.0893 3.3531 55.0846 4.31346 53.5776 4.31346C53.5776 4.31346 53.5777 4.31346 53.0753 4.31346L18.4149 0.472075L4.34972 31.2036C4.34972 31.6838 3.34506 32.1639 2.34041 32.1639ZM-12.7294 -4.80994C-11.7247 -4.80994 -10.7201 -4.32974 -10.2177 -3.36938L2.34041 24.0009L14.8985 -3.36938C15.4009 -4.32974 16.4055 -4.80994 17.4102 -4.80994L48.5544 -1.44869L29.9683 -25.4577C29.466 -26.4181 29.466 -27.3784 29.9683 -28.3387L48.5544 -52.3477L17.4102 -48.9865C16.4055 -48.9865 15.4009 -49.4667 14.8985 -50.4271L2.34041 -77.7973L-10.2177 -50.4271C-10.7201 -49.4667 -11.7247 -48.9865 -12.7294 -48.9865L-43.8735 -52.3477L-25.2875 -28.3387C-24.7852 -27.3784 -24.7852 -26.4181 -25.2875 -25.4577L-43.8735 -1.44869L-12.7294 -4.80994Z" fill="#351108" fill-opacity="0.02"/>
<path d="M105.315 32.1639C104.31 32.1639 103.306 31.6837 102.803 30.7234L88.7383 -0.00813477L54.0778 3.83332C53.0732 3.83332 52.0685 3.35316 51.5662 2.87298C51.0639 2.3928 51.0639 0.952255 51.5662 0.472075L72.1615 -26.418L51.5662 -53.3082C51.0639 -54.2685 51.0639 -55.2289 51.5662 -55.7091C52.0685 -56.6694 53.0732 -57.1496 54.0778 -56.6694L88.7383 -52.828L102.803 -83.5595C103.808 -85.4802 106.822 -85.4802 107.324 -83.5595L121.389 -52.828L156.05 -56.6694C157.055 -56.6694 158.059 -56.1892 158.562 -55.7091C159.064 -54.7487 159.064 -53.7883 158.562 -53.3082L137.966 -26.418L158.059 -0.00813477C158.562 0.472045 159.064 0.952196 159.064 1.91256C159.064 3.3531 158.059 4.31346 156.552 4.31346C156.552 4.31346 156.552 4.31346 156.05 4.31346L121.389 0.472075L107.324 31.2036C107.324 31.6838 106.32 32.1639 105.315 32.1639ZM90.2453 -4.80994C91.2499 -4.80994 92.2546 -4.32974 92.7569 -3.36938L105.315 24.0009L117.873 -3.36938C118.375 -4.32974 119.38 -4.80994 120.385 -4.80994L151.529 -1.44869L132.943 -25.4577C132.441 -26.4181 132.441 -27.3784 132.943 -28.3387L151.529 -52.3477L120.385 -48.9865C119.38 -48.9865 118.375 -49.4667 117.873 -50.4271L105.315 -77.7973L92.7569 -50.4271C92.2546 -49.4667 91.2499 -48.9865 90.2453 -48.9865L59.1011 -52.3477L77.6871 -28.3387C78.1894 -27.3784 78.1894 -26.4181 77.6871 -25.4577L59.1011 -1.44869L90.2453 -4.80994Z" fill="#351108" fill-opacity="0.02"/>
<path d="M-48.8979 117.637C-49.9025 117.637 -50.9072 117.157 -51.4095 116.197L-65.4746 85.465L-100.135 89.3065C-101.14 89.3065 -102.144 88.8262 -102.647 88.3461C-103.149 87.3857 -103.149 86.4253 -102.647 85.9452L-82.0514 59.0551L-102.647 32.165C-103.149 31.2046 -103.149 30.2443 -102.647 29.7641C-102.144 28.8037 -101.14 28.3236 -100.135 28.8037L-65.4746 32.6452L-51.4095 1.91362C-50.4048 -0.00709669 -47.3909 -0.00709669 -46.8886 1.91362L-32.8235 32.6452L1.83701 28.8037C2.84166 28.8037 3.84631 29.2839 4.34864 29.7641C4.85096 30.7245 4.85096 31.6848 4.34864 32.165L-16.2467 59.0551L3.84632 85.465C4.34864 85.9452 4.85095 86.4254 4.85095 87.3857C4.85095 88.8263 3.8463 89.7866 2.33933 89.7866C2.33933 89.7866 2.33933 89.7866 1.83701 89.7866L-32.8235 85.9452L-46.8886 116.677C-47.3909 116.677 -47.8932 117.637 -48.8979 117.637ZM-63.9676 80.183C-62.963 80.183 -61.9583 80.6632 -61.456 81.6236L-48.8979 108.994L-36.3397 81.6236C-35.8374 80.6632 -34.8328 80.183 -33.8281 80.183L-2.68393 83.5443L-21.27 59.5353C-21.7723 58.5749 -21.7723 57.6146 -21.27 56.6542L-2.68393 32.6452L-33.8281 36.0064C-34.8328 36.0064 -35.8374 35.5263 -36.3397 34.5659L-48.8979 7.19564L-61.456 34.5659C-61.9583 35.5263 -62.963 36.0064 -63.9676 36.0064L-95.1118 32.6452L-76.5258 56.6542C-76.0235 57.6146 -76.0235 58.5749 -76.5258 59.5353L-95.1118 83.5443L-63.9676 80.183Z" fill="#351108" fill-opacity="0.02"/>
<path d="M54.0787 117.637C53.074 117.637 52.0694 117.157 51.5671 116.197L37.5019 85.465L2.8415 89.3065C1.83685 89.3065 0.832195 88.8262 0.329869 88.3461C-0.172456 87.3857 -0.172456 86.4253 0.329869 85.9452L20.9252 59.0551L0.329869 32.165C-0.172456 31.2046 -0.172456 30.2443 0.329869 29.7641C0.832195 28.8037 1.83685 28.3236 2.8415 28.8037L37.5019 32.6452L51.5671 1.91362C52.5717 -0.00709669 55.5857 -0.00709669 56.088 1.91362L70.1531 32.6452L104.814 28.8037C105.818 28.8037 106.823 29.2839 107.325 29.7641C107.828 30.7245 107.828 31.6848 107.325 32.165L86.7299 59.0551L106.823 85.465C107.325 85.9452 107.828 86.4254 107.828 87.3857C107.828 88.8263 106.823 89.7866 105.316 89.7866C105.316 89.7866 105.316 89.7866 104.814 89.7866L70.1531 85.9452L56.088 116.677C55.5857 116.677 55.0833 117.637 54.0787 117.637ZM39.0089 80.183C40.0136 80.183 41.0182 80.6632 41.5206 81.6236L54.0787 108.994L66.6368 81.6236C67.1392 80.6632 68.1438 80.183 69.1485 80.183L100.293 83.5443L81.7066 59.5353C81.2043 58.5749 81.2043 57.6146 81.7066 56.6542L100.293 32.6452L69.1485 36.0064C68.1438 36.0064 67.1392 35.5263 66.6368 34.5659L54.0787 7.19564L41.5206 34.5659C41.0182 35.5263 40.0136 36.0064 39.0089 36.0064L7.86475 32.6452L26.4508 56.6542C26.9531 57.6146 26.9531 58.5749 26.4508 59.5353L7.86475 83.5443L39.0089 80.183Z" fill="#351108" fill-opacity="0.02"/>
<path d="M156.555 117.637C155.551 117.637 154.546 117.157 154.044 116.197L139.979 85.465L105.318 89.3065C104.313 89.3065 103.309 88.8262 102.806 88.3461C102.304 87.3857 102.304 86.4253 102.806 85.9452L123.402 59.0551L102.806 32.165C102.304 31.2046 102.304 30.2443 102.806 29.7641C103.309 28.8037 104.313 28.3236 105.318 28.8037L139.979 32.6452L154.044 1.91362C155.048 -0.00709669 158.062 -0.00709669 158.565 1.91362L172.63 32.6452L207.29 28.8037C208.295 28.8037 209.299 29.2839 209.802 29.7641C210.304 30.7245 210.304 31.6848 209.802 32.165L189.206 59.0551L209.299 85.465C209.802 85.9452 210.304 86.4254 210.304 87.3857C210.304 88.8263 209.299 89.7866 207.793 89.7866C207.793 89.7866 207.792 89.7866 207.29 89.7866L172.63 85.9452L158.565 116.677C158.565 116.677 157.56 117.637 156.555 117.637ZM141.988 80.183C142.992 80.183 143.997 80.6632 144.499 81.6236L157.058 108.994L169.616 81.6236C170.118 80.6632 171.123 80.183 172.127 80.183L203.272 83.5443L184.686 59.5353C184.183 58.5749 184.183 57.6146 184.686 56.6542L203.272 32.6452L172.127 36.0064C171.123 36.0064 170.118 35.5263 169.616 34.5659L157.058 7.19564L144.499 34.5659C143.997 35.5263 142.992 36.0064 141.988 36.0064L110.844 32.6452L129.43 56.6542C129.932 57.6146 129.932 58.5749 129.43 59.5353L110.844 83.5443L141.988 80.183Z" fill="#351108" fill-opacity="0.02"/>
<path d="M2.34041 202.628C1.33576 202.628 0.331107 202.148 -0.171219 201.187L-14.2363 170.456L-48.8968 174.297C-49.9014 174.297 -50.9061 173.817 -51.4084 173.337C-51.9107 172.376 -51.9107 171.416 -51.4084 170.936L-30.8131 144.046L-51.4084 117.156C-51.9107 116.195 -51.9107 115.235 -51.4084 114.755C-50.9061 113.794 -49.9014 113.314 -48.8968 113.794L-14.2363 117.636L-0.171219 86.9043C0.833432 84.9836 3.84739 84.9836 4.34972 86.9043L18.4149 117.636L53.0753 113.794C54.08 113.794 55.0846 114.275 55.587 114.755C56.0893 115.715 56.0893 116.675 55.587 117.156L34.9916 144.046L55.0846 170.456C55.5869 170.936 56.0893 171.416 56.0893 172.376C56.0893 173.817 55.0846 174.777 53.5776 174.777C53.5776 174.777 53.5777 174.777 53.0753 174.777L18.4149 170.936L4.34972 201.667C4.34972 202.148 3.34506 202.628 2.34041 202.628ZM-12.7294 165.654C-11.7247 165.654 -10.7201 166.134 -10.2177 167.094L2.34041 194.465L14.8985 167.094C15.4009 166.134 16.4055 165.654 17.4102 165.654L48.5544 169.015L29.9683 145.006C29.466 144.046 29.466 143.085 29.9683 142.125L48.5544 118.116L17.4102 121.477C16.4055 121.477 15.4009 120.997 14.8985 120.037L2.34041 92.6665L-10.2177 120.037C-10.7201 120.997 -11.7247 121.477 -12.7294 121.477L-43.8735 118.116L-25.2875 142.125C-24.7852 143.085 -24.7852 144.046 -25.2875 145.006L-43.8735 169.015L-12.7294 165.654Z" fill="#351108" fill-opacity="0.02"/>
<path d="M105.315 202.628C104.31 202.628 103.306 202.148 102.803 201.187L88.7383 170.456L54.0778 174.297C53.0732 174.297 52.0685 173.817 51.5662 173.337C51.0639 172.857 51.0639 171.416 51.5662 170.936L72.1615 144.046L51.5662 117.156C51.0639 116.195 51.0639 115.235 51.5662 114.755C52.0685 113.794 53.0732 113.314 54.0778 113.794L88.7383 117.636L102.803 86.9043C103.808 84.9836 106.822 84.9836 107.324 86.9043L121.389 117.636L156.05 113.794C157.055 113.794 158.059 114.275 158.562 114.755C159.064 115.715 159.064 116.675 158.562 117.156L137.966 144.046L158.059 170.456C158.562 170.936 159.064 171.416 159.064 172.376C159.064 173.817 158.059 174.777 156.552 174.777C156.552 174.777 156.552 174.777 156.05 174.777L121.892 170.456L107.827 201.187C107.324 202.148 106.32 202.628 105.315 202.628ZM90.2453 165.654C91.2499 165.654 92.2546 166.134 92.7569 167.094L105.315 194.465L117.873 167.094C118.375 166.134 119.38 165.654 120.385 165.654L151.529 169.015L132.943 145.006C132.441 144.046 132.441 143.085 132.943 142.125L151.529 118.116L120.385 121.477C119.38 121.477 118.375 120.997 117.873 120.037L105.315 92.6665L92.7569 120.037C92.2546 120.997 91.2499 121.477 90.2453 121.477L59.1011 118.116L77.6871 142.125C78.1894 143.085 78.1894 144.046 77.6871 145.006L59.1011 169.015L90.2453 165.654Z" fill="#351108" fill-opacity="0.02"/>
</g>
<defs>
<clipPath id="clip0_9_767">
<rect width="108" height="117" fill="white"/>
</clipPath>
</defs>
</svg>
