<svg width="889" height="506" viewBox="0 0 889 506" fill="none" xmlns="http://www.w3.org/2000/svg">
<path d="M174.85 7.50845C168.614 7.8029 164.024 8.39179 161.08 9.27515C158.309 10.1585 156.403 11.8516 155.364 14.3544C154.325 16.8572 153.805 20.9059 153.805 26.5004V136.035C153.805 141.63 154.325 145.679 155.364 148.181C156.403 150.684 158.309 152.377 161.08 153.261C164.024 154.144 168.614 154.733 174.85 155.027V159.444C167.575 159.002 156.49 158.781 141.594 158.781C127.565 158.781 116.566 159.002 108.599 159.444V155.027C114.834 154.733 119.338 154.144 122.109 153.261C125.053 152.377 127.045 150.684 128.084 148.181C129.124 145.679 129.643 141.63 129.643 136.035V83.0346H45.2063V136.035C45.2063 141.63 45.7259 145.679 46.7651 148.181C47.8043 150.684 49.7096 152.377 52.4808 153.261C55.4253 154.144 60.0152 154.733 66.2506 155.027V159.444C58.2832 159.002 47.2847 158.781 33.2552 158.781C18.3596 158.781 7.27457 159.002 0 159.444V155.027C6.23535 154.733 10.7387 154.144 13.5099 153.261C16.4544 152.377 18.4462 150.684 19.4855 148.181C20.5247 145.679 21.0443 141.63 21.0443 136.035V26.5004C21.0443 20.9059 20.5247 16.8572 19.4855 14.3544C18.4462 11.8516 16.4544 10.1585 13.5099 9.27515C10.7387 8.39179 6.23535 7.8029 0 7.50845V3.09172C7.27457 3.53339 18.3596 3.75423 33.2552 3.75423C47.1115 3.75423 58.11 3.53339 66.2506 3.09172V7.50845C60.0152 7.8029 55.4253 8.39179 52.4808 9.27515C49.7096 10.1585 47.8043 11.8516 46.7651 14.3544C45.7259 16.8572 45.2063 20.9059 45.2063 26.5004V78.6178H129.643V26.5004C129.643 20.9059 129.124 16.8572 128.084 14.3544C127.045 11.8516 125.053 10.1585 122.109 9.27515C119.338 8.39179 114.834 7.8029 108.599 7.50845V3.09172C116.566 3.53339 127.565 3.75423 141.594 3.75423C156.49 3.75423 167.575 3.53339 174.85 3.09172V7.50845Z" fill="#333333"/>
<path d="M361.068 140.894C365.225 150.022 371.2 154.733 378.994 155.027V159.444C372.066 159.002 362.8 158.781 351.195 158.781C336.3 158.781 325.214 159.002 317.94 159.444V155.027C324.522 154.733 329.198 154.07 331.969 153.04C334.914 151.862 336.386 149.801 336.386 146.856C336.386 144.354 335.347 140.894 333.268 136.477L317.42 100.26H254.547L243.895 123.668C240.431 131.619 238.699 137.655 238.699 141.777C238.699 146.341 240.518 149.654 244.155 151.715C247.965 153.776 253.681 154.88 261.302 155.027V159.444C251.429 159.002 241.47 158.781 231.424 158.781C223.63 158.781 217.135 159.002 211.939 159.444V155.027C220.599 153.261 227.441 146.856 232.464 135.814L293.518 1.98753H297.675L361.068 140.894ZM315.342 95.8431L286.244 29.8129L256.626 95.8431H315.342Z" fill="#333333"/>
<path d="M574.44 7.50845C568.378 7.8029 563.874 8.61263 560.93 9.93765C557.985 11.1154 555.993 13.1766 554.954 16.1211C553.915 18.9183 553.395 23.1142 553.395 28.7088V160.548H547.42L438.301 17.2253V133.827C438.301 139.569 438.821 143.838 439.86 146.635C441.073 149.433 443.324 151.494 446.615 152.819C449.906 153.997 455.015 154.733 461.944 155.027V159.444C455.708 159.002 446.875 158.781 435.443 158.781C425.051 158.781 416.997 159.002 411.281 159.444V155.027C417.344 154.733 421.847 153.997 424.791 152.819C427.736 151.494 429.728 149.433 430.767 146.635C431.806 143.691 432.326 139.421 432.326 133.827V26.5004C432.326 20.9059 431.806 16.8572 430.767 14.3544C429.728 11.8516 427.736 10.1585 424.791 9.27515C422.02 8.39179 417.517 7.8029 411.281 7.50845V3.09172C416.997 3.53339 425.051 3.75423 435.443 3.75423C443.238 3.75423 449.993 3.53339 455.708 3.09172L547.42 123.227V28.7088C547.42 22.967 546.814 18.6975 545.601 15.9002C544.562 13.103 542.397 11.1154 539.106 9.93765C535.815 8.61263 530.706 7.8029 523.777 7.50845V3.09172C530.013 3.53339 538.846 3.75423 550.278 3.75423C560.67 3.75423 568.724 3.53339 574.44 3.09172V7.50845Z" fill="#333333"/>
<path d="M696.825 0C707.044 0 715.444 1.25141 722.026 3.75423C728.608 6.10982 735.796 9.64321 743.59 14.3544C745.841 15.8266 747.574 16.5627 748.786 16.5627C752.077 16.5627 754.242 12.0724 755.281 3.09172H761.257C760.564 12.6613 760.217 29.5921 760.217 53.8841H754.242C752.683 46.0812 751.038 39.677 749.306 34.6713C747.574 29.5185 744.889 25.0281 741.252 21.2003C736.229 15.9002 729.647 11.7043 721.506 8.61263C713.539 5.52092 705.139 3.97506 696.305 3.97506C684.874 3.97506 674.828 7.14039 666.168 13.471C657.507 19.8017 650.839 28.856 646.163 40.6339C641.486 52.2647 639.148 65.8829 639.148 81.4887C639.148 107.989 644.084 127.423 653.957 139.79C664.003 152.009 679.678 158.119 700.982 158.119C711.374 158.119 720.38 155.837 728.001 151.273C731.119 149.506 733.111 147.813 733.977 146.194C735.016 144.427 735.536 142.072 735.536 139.127V117.927C735.536 111.743 734.843 107.253 733.458 104.456C732.072 101.658 729.647 99.7445 726.183 98.714C722.719 97.6834 717.09 97.0209 709.295 96.7264V92.3097C718.302 92.7514 730.513 92.9722 745.928 92.9722C757.706 92.9722 766.713 92.7514 772.948 92.3097V96.7264C768.964 97.0209 766.02 97.6098 764.115 98.4931C762.383 99.3765 761.17 101.07 760.477 103.572C759.958 106.075 759.698 110.124 759.698 115.718V159.444H754.502C754.328 156.5 753.636 153.702 752.423 151.052C751.211 148.255 749.565 146.856 747.487 146.856C746.448 146.856 745.408 147.077 744.369 147.519C743.33 147.961 741.511 148.991 738.913 150.611C732.851 154.586 726.529 157.53 719.948 159.444C713.539 161.505 706.351 162.536 698.384 162.536C680.544 162.536 665.215 159.444 652.398 153.261C639.754 146.93 630.055 137.876 623.3 126.098C616.545 114.32 613.167 100.26 613.167 83.9179C613.167 67.1343 616.718 52.4119 623.819 39.7506C631.094 26.9421 641.053 17.1516 653.697 10.3793C666.341 3.45978 680.717 0 696.825 0Z" fill="#333333"/>
<path d="M206.138 312C209.083 315.681 212.287 318.625 215.751 320.834C219.388 322.895 223.805 324.441 229.001 325.471V329.888C220.687 329.446 210.295 329.225 197.825 329.225C188.472 329.225 179.551 329.446 171.064 329.888V325.471C175.221 325.324 178.253 324.882 180.158 324.146C182.063 323.41 183.016 322.306 183.016 320.834C183.016 319.361 182.15 317.595 180.418 315.534L142.486 266.949C137.463 260.472 133.219 256.276 129.755 254.362C126.291 252.301 121.442 251.123 115.206 250.828V306.479C115.206 312.074 115.726 316.122 116.765 318.625C117.804 321.128 119.71 322.821 122.481 323.704C125.425 324.588 130.015 325.177 136.251 325.471V329.888C128.283 329.446 117.285 329.225 103.255 329.225C88.3595 329.225 77.2746 329.446 70 329.888V325.471C76.2353 325.177 80.7386 324.588 83.5099 323.704C86.4544 322.821 88.4461 321.128 89.4854 318.625C90.5246 316.122 91.0442 312.074 91.0442 306.479V196.944C91.0442 191.35 90.5246 187.301 89.4854 184.798C88.4461 182.295 86.4544 180.602 83.5099 179.719C80.7386 178.836 76.2353 178.247 70 177.952V173.536C77.2746 173.977 88.3595 174.198 103.255 174.198C117.111 174.198 128.11 173.977 136.251 173.536V177.952C130.015 178.247 125.425 178.836 122.481 179.719C119.71 180.602 117.804 182.295 116.765 184.798C115.726 187.301 115.206 191.35 115.206 196.944V246.412C127.85 245.97 137.723 241.848 144.824 234.045L169.766 207.103C178.599 197.828 183.016 190.761 183.016 185.902C183.016 180.75 177.646 178.1 166.908 177.952V173.536C176.78 173.977 186.74 174.198 196.785 174.198C206.312 174.198 213.673 173.977 218.869 173.536V177.952C213.153 178.688 207.784 180.308 202.761 182.811C197.738 185.166 192.888 188.921 188.212 194.073L145.863 240.228L206.138 312Z" fill="#333333"/>
<path d="M401.304 301.621C401.304 310.013 401.91 319.435 403.122 329.888C391.344 329.446 371.512 329.225 343.627 329.225C310.371 329.225 285.257 329.446 268.283 329.888V325.471C274.518 325.177 279.022 324.588 281.793 323.704C284.737 322.821 286.729 321.128 287.768 318.625C288.808 316.122 289.327 312.074 289.327 306.479V196.944C289.327 191.35 288.808 187.301 287.768 184.798C286.729 182.295 284.737 180.602 281.793 179.719C279.022 178.836 274.518 178.247 268.283 177.952V173.536C285.257 173.977 310.371 174.198 343.627 174.198C369.088 174.198 387.187 173.977 397.926 173.536C396.714 183.252 396.108 191.939 396.108 199.594C396.108 205.336 396.367 209.9 396.887 213.286H390.911C389.699 203.717 388.14 196.65 386.235 192.086C384.329 187.375 381.125 183.989 376.622 181.927C372.119 179.719 365.277 178.615 356.097 178.615H334.533C328.298 178.615 323.708 179.057 320.764 179.94C317.993 180.676 316.087 182.295 315.048 184.798C314.009 187.301 313.489 191.35 313.489 196.944V249.062H330.636C336.698 249.062 341.375 247.884 344.666 245.528C347.957 243.026 350.122 240.155 351.161 236.916C352.373 233.53 353.326 229.334 354.019 224.328L354.798 219.911H360.774C360.254 226.095 359.994 233.014 359.994 240.67V251.27C359.994 258.779 360.514 269.231 361.553 282.629H355.578C355.404 281.598 354.885 278.065 354.019 272.029C353.153 265.845 350.728 261.208 346.744 258.116C342.934 255.024 337.564 253.478 330.636 253.478H313.489V306.479C313.489 312.074 314.009 316.122 315.048 318.625C316.087 321.128 317.993 322.821 320.764 323.704C323.708 324.441 328.298 324.809 334.533 324.809H353.499C364.238 324.809 372.378 323.631 377.921 321.275C383.637 318.772 387.794 314.871 390.392 309.571C392.99 304.124 394.895 296.174 396.108 285.721H402.083C401.563 289.696 401.304 294.996 401.304 301.621Z" fill="#333333"/>
<path d="M595.935 177.952C589.873 178.247 596.302 179.057 593.357 180.382C590.413 181.559 588.421 183.621 587.382 186.565C586.343 189.362 585.823 193.558 585.823 199.153V330.992H579.847L470.729 187.669V304.271C470.729 310.013 471.248 314.282 472.288 317.079C473.5 319.877 475.752 321.938 479.043 323.263C482.333 324.441 487.443 325.177 494.371 325.471V329.888C488.136 329.446 479.302 329.225 467.871 329.225C457.479 329.225 449.425 329.446 443.709 329.888V325.471C449.771 325.177 454.275 324.441 457.219 323.263C460.163 321.938 462.155 319.877 463.194 317.079C464.234 314.135 464.753 309.865 464.753 304.271V196.944C464.753 191.35 464.234 187.301 463.194 184.798C462.155 182.295 460.163 180.602 457.219 179.719C454.448 178.836 449.944 178.247 443.709 177.952V173.536C449.425 173.977 457.479 174.198 467.871 174.198C475.665 174.198 482.42 173.977 488.136 173.536L579.847 293.671V199.153C579.847 193.411 579.241 189.141 578.029 186.344C576.99 183.547 574.824 181.559 571.534 180.382C568.243 179.057 563.133 178.247 556.205 177.952V173.536C562.44 173.977 571.274 174.198 582.705 174.198C593.097 174.198 590.219 173.977 595.935 173.536V177.952Z" fill="#333333"/>
<path d="M819.103 177.952C812.867 178.247 808.277 178.836 805.333 179.719C802.562 180.602 800.656 182.295 799.617 184.798C798.578 187.301 798.058 191.35 798.058 196.944V306.479C798.058 312.074 798.578 316.122 799.617 318.625C800.656 321.128 802.562 322.821 805.333 323.704C808.277 324.588 812.867 325.177 819.103 325.471V329.888C811.828 329.446 800.743 329.225 785.848 329.225C771.818 329.225 760.819 329.446 752.852 329.888V325.471C759.087 325.177 763.591 324.588 766.362 323.704C769.306 322.821 771.298 321.128 772.338 318.625C773.377 316.122 773.896 312.074 773.896 306.479V253.478H689.459V306.479C689.459 312.074 689.979 316.122 691.018 318.625C692.057 321.128 693.963 322.821 696.734 323.704C699.678 324.588 704.268 325.177 710.504 325.471V329.888C702.536 329.446 691.538 329.225 677.508 329.225C662.613 329.225 651.528 329.446 644.253 329.888V325.471C650.488 325.177 654.992 324.588 657.763 323.704C660.707 322.821 662.699 321.128 663.739 318.625C664.778 316.122 665.297 312.074 665.297 306.479V196.944C665.297 191.35 664.778 187.301 663.739 184.798C662.699 182.295 660.707 180.602 657.763 179.719C654.992 178.836 650.488 178.247 644.253 177.952V173.536C651.528 173.977 662.613 174.198 677.508 174.198C691.365 174.198 702.363 173.977 710.504 173.536V177.952C704.268 178.247 699.678 178.836 696.734 179.719C693.963 180.602 692.057 182.295 691.018 184.798C689.979 187.301 689.459 191.35 689.459 196.944V249.062H773.896V196.944C773.896 191.35 773.377 187.301 772.338 184.798C771.298 182.295 769.306 180.602 766.362 179.719C763.591 178.836 759.087 178.247 752.852 177.952V173.536C760.819 173.977 771.818 174.198 785.848 174.198C800.743 174.198 811.828 173.977 819.103 173.536V177.952Z" fill="#333333"/>
<g opacity="0.3">
<path d="M831.558 505.838C817.456 505.838 803.583 502.392 789.936 495.5L770.604 503.888H765.6V453.759H770.604L790.163 490.039C802.749 497.711 817.153 501.547 833.377 501.547C846.72 501.547 857.713 498.556 866.356 492.575C875.15 486.463 879.548 477.945 879.548 467.022C879.548 459.09 876.743 452.848 871.132 448.297C865.522 443.616 856.424 439.91 843.839 437.179L806.084 428.792C792.893 425.801 782.961 420.729 776.289 413.577C769.618 406.295 766.282 397.713 766.282 387.83C766.282 378.858 768.329 370.925 772.423 364.033C776.669 357.011 782.81 351.615 790.846 347.844C798.882 343.943 808.435 341.992 819.504 341.992C833.302 341.992 845.659 344.008 856.576 348.039L873.179 341.992H878.183V381.783H873.179L856.804 353.305C845.432 348.624 833.074 346.283 819.731 346.283C806.539 346.283 796.153 349.209 788.571 355.061C780.99 360.782 777.199 368.39 777.199 377.882C777.199 384.904 779.853 390.431 785.16 394.462C790.618 398.493 798.579 401.679 809.041 404.02L849.753 413.187C862.945 416.048 872.725 420.989 879.093 428.011C885.613 434.903 888.873 445.436 888.873 459.61C888.873 474.044 883.642 485.358 873.179 493.55C862.869 501.742 848.995 505.838 831.558 505.838Z" fill="black"/>
<path d="M696.795 505.838C680.267 505.838 665.787 502.392 653.354 495.5C640.92 488.608 631.292 478.986 624.469 466.632C617.797 454.279 614.461 440.04 614.461 423.915C614.461 407.791 618.025 393.552 625.151 381.198C632.277 368.845 642.209 359.222 654.946 352.33C667.834 345.438 682.542 341.992 699.069 341.992C714.687 341.992 727.878 345.373 738.644 352.135L752.518 341.992H757.294V390.366H752.518L737.507 358.182C726.59 350.38 713.777 346.478 699.069 346.478C688.455 346.478 678.903 348.819 670.412 353.5C662.072 358.182 655.476 365.009 650.624 373.981C645.924 382.954 643.574 393.617 643.574 405.97V441.665C643.574 454.019 645.772 464.682 650.169 473.654C654.718 482.627 660.935 489.519 668.82 494.33C676.856 499.011 686.181 501.352 696.795 501.352C709.835 501.352 719.918 497.906 727.044 491.014C734.322 484.122 737.962 474.89 737.962 463.316V445.176L716.81 442.445V438.154H784.814V442.445L763.662 445.176V463.316C763.662 470.728 761.312 477.685 756.612 484.187C751.911 490.559 744.558 495.76 734.55 499.792C724.543 503.823 711.958 505.838 696.795 505.838Z" fill="black"/>
<path d="M549.621 505.992C527.332 505.992 511.032 501.766 500.722 493.314C490.411 484.731 485.256 473.418 485.256 459.374V353.069L464.331 350.338V346.047H531.199V350.338L510.274 353.069V459.374C510.274 472.118 514.444 481.935 522.784 488.827C531.123 495.589 543.784 498.97 560.766 498.97C592.911 498.97 608.984 485.771 608.984 459.374V357.946L587.832 350.338V346.047H636.276V350.338L614.442 357.946V459.374C614.442 474.978 609.363 486.682 599.204 494.484C589.045 502.156 572.517 505.992 549.621 505.992Z" fill="black"/>
<path d="M476.219 503.456C467.728 503.456 461.36 501.7 457.114 498.189C452.869 494.678 449.988 488.697 448.472 480.244L444.15 454.107C442.634 445.264 439.071 438.372 433.46 433.431C428.002 428.36 419.435 425.824 407.76 425.824H390.019V494.483L410.944 497.409V501.505H344.076V497.409L365.001 494.483V352.483L344.076 349.753V345.461H407.76C432.475 345.461 450.367 348.777 461.436 355.409C472.505 362.041 478.039 372.119 478.039 385.643C478.039 408.009 462.27 420.948 430.731 424.459V425.629C442.406 427.059 451.732 430.635 458.706 436.357C465.833 442.078 470.306 449.686 472.126 459.178L475.082 475.953C476.295 483.235 477.66 488.176 479.176 490.777C480.844 493.378 483.346 494.678 486.682 494.678C488.956 494.678 491.382 494.093 493.96 492.923C496.537 491.622 498.964 489.997 501.238 488.046L505.104 491.557C500.707 495.849 496.158 498.904 491.458 500.725C486.758 502.545 481.678 503.456 476.219 503.456ZM415.493 421.143C426.562 421.143 435.128 418.282 441.193 412.56C447.41 406.709 450.519 398.126 450.519 386.813V382.717C450.519 361.131 436.266 350.338 407.76 350.338H390.019V421.143H415.493Z" fill="black"/>
</g>
</svg>
