<svg width="21" height="21" viewBox="0 0 21 21" fill="none" xmlns="http://www.w3.org/2000/svg">
<g id="vuesax/linear/candle">
<g id="candle">
<path id="Vector" d="M5.70573 18.8333V13" stroke="#242424" stroke-width="1.5" stroke-miterlimit="10" stroke-linecap="round" stroke-linejoin="round"/>
<path id="Vector_2" d="M5.70573 4.66602V2.16602" stroke="#242424" stroke-width="1.5" stroke-miterlimit="10" stroke-linecap="round" stroke-linejoin="round"/>
<path id="Vector_3" d="M14.8724 18.834V16.334" stroke="#242424" stroke-width="1.5" stroke-miterlimit="10" stroke-linecap="round" stroke-linejoin="round"/>
<path id="Vector_4" d="M14.8724 7.99935V2.16602" stroke="#242424" stroke-width="1.5" stroke-miterlimit="10" stroke-linecap="round" stroke-linejoin="round"/>
<path id="Vector_5" d="M8.20573 6.33268V11.3327C8.20573 12.2493 7.78906 12.9993 6.53906 12.9993H4.87239C3.62239 12.9993 3.20573 12.2493 3.20573 11.3327V6.33268C3.20573 5.41602 3.62239 4.66602 4.87239 4.66602H6.53906C7.78906 4.66602 8.20573 5.41602 8.20573 6.33268Z" stroke="#242424" stroke-width="1.5" stroke-miterlimit="10" stroke-linecap="round" stroke-linejoin="round"/>
<path id="Vector_6" d="M17.3724 9.66667V14.6667C17.3724 15.5833 16.9557 16.3333 15.7057 16.3333H14.0391C12.7891 16.3333 12.3724 15.5833 12.3724 14.6667V9.66667C12.3724 8.75 12.7891 8 14.0391 8H15.7057C16.9557 8 17.3724 8.75 17.3724 9.66667Z" stroke="#242424" stroke-width="1.5" stroke-miterlimit="10" stroke-linecap="round" stroke-linejoin="round"/>
</g>
</g>
</svg>
