<svg width="21" height="21" viewBox="0 0 21 21" fill="none" xmlns="http://www.w3.org/2000/svg">
<g id="vuesax/linear/category">
<g id="category">
<path id="Vector" d="M4.45573 8.83268H6.12239C7.78906 8.83268 8.62239 7.99935 8.62239 6.33268V4.66602C8.62239 2.99935 7.78906 2.16602 6.12239 2.16602H4.45573C2.78906 2.16602 1.95573 2.99935 1.95573 4.66602V6.33268C1.95573 7.99935 2.78906 8.83268 4.45573 8.83268Z" stroke="#242424" stroke-width="1.5" stroke-miterlimit="10" stroke-linecap="round" stroke-linejoin="round"/>
<path id="Vector_2" d="M14.4557 8.83268H16.1224C17.7891 8.83268 18.6224 7.99935 18.6224 6.33268V4.66602C18.6224 2.99935 17.7891 2.16602 16.1224 2.16602H14.4557C12.7891 2.16602 11.9557 2.99935 11.9557 4.66602V6.33268C11.9557 7.99935 12.7891 8.83268 14.4557 8.83268Z" stroke="#242424" stroke-width="1.5" stroke-miterlimit="10" stroke-linecap="round" stroke-linejoin="round"/>
<path id="Vector_3" d="M14.4557 18.8327H16.1224C17.7891 18.8327 18.6224 17.9993 18.6224 16.3327V14.666C18.6224 12.9993 17.7891 12.166 16.1224 12.166H14.4557C12.7891 12.166 11.9557 12.9993 11.9557 14.666V16.3327C11.9557 17.9993 12.7891 18.8327 14.4557 18.8327Z" stroke="#242424" stroke-width="1.5" stroke-miterlimit="10" stroke-linecap="round" stroke-linejoin="round"/>
<path id="Vector_4" d="M4.45573 18.8327H6.12239C7.78906 18.8327 8.62239 17.9993 8.62239 16.3327V14.666C8.62239 12.9993 7.78906 12.166 6.12239 12.166H4.45573C2.78906 12.166 1.95573 12.9993 1.95573 14.666V16.3327C1.95573 17.9993 2.78906 18.8327 4.45573 18.8327Z" stroke="#242424" stroke-width="1.5" stroke-miterlimit="10" stroke-linecap="round" stroke-linejoin="round"/>
</g>
</g>
</svg>
