<svg width="16" height="16" viewBox="0 0 16 16" fill="none" xmlns="http://www.w3.org/2000/svg">
<path d="M14.8326 2.3202C14.0435 1.42477 12.9487 0.931641 11.75 0.931641C10.0641 0.931641 8.99678 1.93852 8.39828 2.7832C8.243 3.00239 8.11091 3.22217 8 3.42898C7.88909 3.22217 7.75703 3.00239 7.60172 2.7832C7.00322 1.93852 5.93587 0.931641 4.25 0.931641C3.05131 0.931641 1.95653 1.4248 1.16734 2.32023C0.414594 3.17442 0 4.31842 0 5.54148C0 6.87283 0.519781 8.11111 1.63578 9.43836C2.63319 10.6246 4.06809 11.8474 5.72969 13.2633C6.34884 13.7909 6.98912 14.3365 7.67078 14.9329L7.69125 14.9509C7.77962 15.0282 7.88981 15.0669 8 15.0669C8.11019 15.0669 8.22038 15.0282 8.30875 14.9509L8.32922 14.9329C9.01087 14.3365 9.65116 13.7909 10.2704 13.2632C11.9319 11.8474 13.3668 10.6246 14.3642 9.43836C15.4802 8.11108 16 6.87283 16 5.54148C16 4.31842 15.5854 3.17442 14.8326 2.3202ZM9.66228 12.5497C9.12853 13.0045 8.57922 13.4726 8 13.9761C7.42081 13.4727 6.87147 13.0045 6.33763 12.5496C3.08578 9.77861 0.9375 7.94795 0.9375 5.54148C0.9375 4.5468 1.26891 3.62292 1.87069 2.94008C2.47937 2.24948 3.32434 1.86914 4.25 1.86914C5.53528 1.86914 6.36613 2.66095 6.83675 3.3252C7.25891 3.92095 7.47919 4.52152 7.55431 4.75205C7.61716 4.94502 7.79706 5.07561 8 5.07561C8.20294 5.07561 8.38284 4.94502 8.44569 4.75205C8.52081 4.52152 8.74109 3.92095 9.16325 3.32517C9.63387 2.66095 10.4647 1.86914 11.75 1.86914C12.6757 1.86914 13.5206 2.24948 14.1293 2.94008C14.7311 3.62292 15.0625 4.5468 15.0625 5.54148C15.0625 7.94795 12.9142 9.77861 9.66228 12.5497Z" fill="#242424"/>
</svg>
