<svg width="17" height="16" viewBox="0 0 17 16" fill="none" xmlns="http://www.w3.org/2000/svg">
<path fill-rule="evenodd" clip-rule="evenodd" d="M14.9826 0.245605H1.64461C1.32061 0.245605 1.04461 0.356604 0.816609 0.578605C0.588608 0.800607 0.474609 1.0676 0.474609 1.37961V14.8796C0.474609 15.1916 0.588608 15.4556 0.816609 15.6716C1.04461 15.8876 1.31461 15.9956 1.62661 15.9956H14.9826C15.2946 15.9956 15.5646 15.8876 15.7926 15.6716C16.0206 15.4556 16.1346 15.1916 16.1346 14.8796V1.37961C16.1346 1.0676 16.0206 0.800607 15.7926 0.578605C15.5646 0.356604 15.2886 0.245605 14.9646 0.245605H14.9826ZM5.22661 13.4396H2.86861V6.32961H5.22661V13.4396ZM4.03861 5.35761H4.02061C3.63661 5.35761 3.32461 5.24061 3.08461 5.00661C2.84461 4.7726 2.72461 4.47861 2.72461 4.12461C2.72461 3.7706 2.84761 3.47661 3.09361 3.24261C3.33961 3.0086 3.66061 2.89161 4.05661 2.89161C4.45261 2.89161 4.77061 3.0086 5.01061 3.24261C5.25061 3.47661 5.37061 3.7706 5.37061 4.12461C5.37061 4.47861 5.25061 4.7726 5.01061 5.00661C4.77061 5.24061 4.44661 5.35761 4.03861 5.35761ZM13.7406 13.4396H11.3826V9.62361C11.3826 9.1316 11.2926 8.74761 11.1126 8.47161C10.9086 8.1716 10.6026 8.02161 10.1946 8.02161C9.88261 8.02161 9.61861 8.1116 9.40261 8.29161C9.21061 8.44761 9.06661 8.6456 8.97061 8.88561C8.92261 9.01761 8.89861 9.2096 8.89861 9.46161V13.4396H6.54061V10.1276C6.55261 7.87159 6.55261 6.60561 6.54061 6.32961H8.89861V7.33761C9.11461 7.0016 9.34861 6.74361 9.60061 6.56361C9.99661 6.2996 10.4706 6.16761 11.0226 6.16761C11.8386 6.16761 12.4866 6.4256 12.9666 6.94161C13.4826 7.50561 13.7406 8.3096 13.7406 9.35361V13.4396Z" fill="#919296"/>
</svg>
