<svg width="17" height="16" viewBox="0 0 17 16" fill="none" xmlns="http://www.w3.org/2000/svg">
<g id="like 1" clip-path="url(#clip0_1025_3594)">
<g id="Group">
<g id="Group_2">
<path id="Vector" d="M15.1217 2.3202C14.3325 1.42477 13.2378 0.931641 12.0391 0.931641C10.3532 0.931641 9.28584 1.93852 8.68734 2.7832C8.53206 3.00239 8.39997 3.22217 8.28906 3.42898C8.17816 3.22217 8.04609 3.00239 7.89078 2.7832C7.29228 1.93852 6.22494 0.931641 4.53906 0.931641C3.34037 0.931641 2.24559 1.4248 1.45641 2.32023C0.703656 3.17442 0.289063 4.31842 0.289063 5.54148C0.289063 6.87283 0.808844 8.11111 1.92484 9.43836C2.92225 10.6246 4.35716 11.8474 6.01875 13.2633C6.63791 13.7909 7.27819 14.3365 7.95984 14.9329L7.98031 14.9509C8.06869 15.0282 8.17887 15.0669 8.28906 15.0669C8.39925 15.0669 8.50944 15.0282 8.59781 14.9509L8.61828 14.9329C9.29994 14.3365 9.94022 13.7909 10.5595 13.2632C12.221 11.8474 13.6559 10.6246 14.6533 9.43836C15.7693 8.11108 16.2891 6.87283 16.2891 5.54148C16.2891 4.31842 15.8745 3.17442 15.1217 2.3202ZM9.95134 12.5497C9.41759 13.0045 8.86828 13.4726 8.28906 13.9761C7.70988 13.4727 7.16053 13.0045 6.62669 12.5496C3.37484 9.77861 1.22656 7.94795 1.22656 5.54148C1.22656 4.5468 1.55797 3.62292 2.15975 2.94008C2.76844 2.24948 3.61341 1.86914 4.53906 1.86914C5.82434 1.86914 6.65519 2.66095 7.12581 3.3252C7.54797 3.92095 7.76825 4.52152 7.84338 4.75205C7.90622 4.94502 8.08612 5.07561 8.28906 5.07561C8.492 5.07561 8.67191 4.94502 8.73475 4.75205C8.80987 4.52152 9.03016 3.92095 9.45231 3.32517C9.92294 2.66095 10.7538 1.86914 12.0391 1.86914C12.9647 1.86914 13.8097 2.24948 14.4183 2.94008C15.0202 3.62292 15.3516 4.5468 15.3516 5.54148C15.3516 7.94795 13.2033 9.77861 9.95134 12.5497Z" fill="#242424"/>
</g>
</g>
</g>
<defs>
<clipPath id="clip0_1025_3594">
<rect width="16" height="16" fill="white" transform="translate(0.289062)"/>
</clipPath>
</defs>
</svg>
