<svg width="230" height="56" viewBox="0 0 230 56" fill="none" xmlns="http://www.w3.org/2000/svg">
<g id="Frame" clip-path="url(#clip0_1368_10225)">
<g id="Group">
<path id="Vector" d="M83.889 0.599609C84.189 0.599609 87.189 0.99961 87.189 4.79961V24.7996L70.289 0.599609H63.889C64.089 0.599609 66.089 0.999609 66.089 4.89961V32.4996C66.089 34.7996 65.089 35.8996 64.289 36.3996L63.489 36.9996H70.289C69.989 36.9996 67.089 36.5996 67.089 32.6996V7.29961L88.189 37.2996V4.79961C88.189 0.99961 91.189 0.599609 91.489 0.599609H83.889ZM19.489 0.699609C19.689 0.699609 21.689 1.09961 21.689 4.99961V17.7996H9.48904V4.99961C9.48904 0.999609 11.489 0.699609 11.689 0.699609H0.889038C1.08904 0.699609 2.98904 0.999609 2.98904 4.99961V32.5996C2.98904 36.5996 0.989038 36.8996 0.889038 36.8996H11.689C11.489 36.8996 9.48904 36.4996 9.48904 32.5996V18.7996H21.689V32.5996C21.689 36.5996 19.689 36.8996 19.489 36.8996H29.989L29.389 36.4996C28.789 35.9996 28.089 34.8996 28.089 32.5996V4.99961C28.089 0.999609 30.089 0.699609 30.189 0.699609H19.489Z" fill="white"/>
<path id="Vector_2" d="M106.289 37.6C108.389 37.6 114.089 36.7 115.989 36.7V22.7C115.989 18.7 117.989 18.4 118.089 18.4V18.3H107.289V18.4C107.489 18.4 109.389 18.8 109.389 22.7V36C108.889 36.3 107.989 36.6 106.989 36.6C99.6891 36.6 98.3891 25 98.3891 18.5C98.3891 13.4 99.7891 1.1 108.489 1.1C110.589 1.1 112.589 2 113.689 3.3C114.789 4.6 115.389 6.6 115.789 8.2V1.4C114.289 1.2 111.489 0 108.489 0C93.9891 0 91.9891 13.5 91.9891 19.7C91.9891 27.4 94.0891 37.5 106.289 37.6Z" fill="white"/>
<path id="Vector_3" d="M130.589 0.700195H119.789C119.989 0.700195 121.889 1.1002 121.889 5.0002V32.6002C121.889 36.6002 119.889 36.9002 119.789 36.9002H130.589C130.389 36.9002 128.389 36.5002 128.389 32.6002V18.8002V5.0002C128.389 1.0002 130.389 0.700195 130.589 0.700195Z" fill="white"/>
<path id="Vector_4" d="M148.189 37.0002H142.589C138.989 37.0002 137.989 35.0002 136.989 32.4002L132.389 21.0002C131.689 19.3002 131.589 18.9002 130.189 18.9002H128.489L136.789 5.0002C138.889 1.5002 136.689 0.700195 136.589 0.700195H146.689C146.089 0.700195 141.989 1.7002 139.589 5.1002L130.189 17.9002H134.989C137.689 17.9002 138.389 18.8002 139.489 21.5002L143.589 31.4002C145.289 35.5002 147.089 36.6002 147.789 36.9002L148.189 37.0002Z" fill="white"/>
<path id="Vector_5" d="M199.889 0.599609H192.189C192.489 0.599609 195.489 0.99961 195.489 4.79961V24.7996L178.589 0.599609H172.189C172.389 0.599609 174.389 0.999609 174.389 4.89961V32.4996C174.389 36.4996 171.489 36.7996 171.189 36.7996H178.689C178.389 36.7996 175.489 36.3996 175.489 32.4996V7.29961L196.589 37.2996V4.79961C196.589 0.99961 199.589 0.699609 199.889 0.599609Z" fill="white"/>
<path id="Vector_6" d="M229.689 0.700195H218.889C219.089 0.700195 221.089 1.1002 221.089 5.0002V17.8002H208.889V5.0002C208.889 1.0002 210.889 0.700195 211.089 0.700195H200.289C200.489 0.700195 202.389 1.1002 202.389 5.0002V32.6002C202.389 36.6002 200.389 36.9002 200.289 36.9002H211.089C210.889 36.9002 208.889 36.5002 208.889 32.6002V18.8002H221.089V32.6002C221.089 36.6002 219.089 36.9002 218.889 36.9002H229.689C229.489 36.9002 227.589 36.5002 227.589 32.6002V5.0002C227.489 1.0002 229.489 0.700195 229.689 0.700195Z" fill="white"/>
<g id="Group_2">
<path id="Vector_7" d="M7.58906 53.5998C7.58906 53.1998 7.58906 52.7998 7.58906 52.4998H7.28906C7.18906 52.8998 7.18906 53.2998 7.08906 53.5998C6.98906 53.9998 6.88906 54.2998 6.68906 54.4998C6.48906 54.6998 6.28906 54.8998 6.08906 54.9998C5.78906 55.0998 5.48906 55.1998 5.18906 55.1998H4.28906C3.98906 55.1998 3.78906 55.1998 3.68906 55.0998C3.58906 55.0998 3.48906 54.9998 3.38906 54.7998C3.38906 54.6998 3.28906 54.3998 3.28906 54.0998V47.6998C3.28906 47.3998 3.28906 47.1998 3.38906 46.9998C3.48906 46.8998 3.58906 46.6998 3.68906 46.6998C3.78906 46.5998 4.08906 46.5998 4.38906 46.5998V46.2998C4.18906 46.2998 3.88906 46.2998 3.58906 46.2998C3.28906 46.2998 2.98906 46.2998 2.58906 46.2998C2.18906 46.2998 1.88906 46.2998 1.58906 46.2998C1.28906 46.2998 0.989063 46.2998 0.789062 46.2998V46.5998C1.08906 46.5998 1.28906 46.5998 1.38906 46.6998C1.48906 46.7998 1.58906 46.8998 1.68906 46.9998C1.88906 47.1998 1.88906 47.3998 1.88906 47.6998V53.9998C1.88906 54.2998 1.88906 54.4998 1.78906 54.6998C1.78906 54.8998 1.68906 54.9998 1.48906 54.9998C1.38906 55.0998 1.08906 55.0998 0.889063 55.0998V55.3998C1.18906 55.3998 1.58906 55.3998 1.88906 55.3998C2.28906 55.3998 2.58906 55.3998 2.98906 55.3998C3.38906 55.3998 3.68906 55.3998 3.98906 55.3998C4.28906 55.3998 4.58906 55.3998 4.78906 55.3998C5.18906 55.3998 5.68906 55.3998 6.28906 55.3998C6.78906 55.3998 7.28906 55.3998 7.78906 55.3998C7.78906 55.0998 7.68906 54.6998 7.68906 54.3998C7.58906 54.0998 7.58906 53.7998 7.58906 53.5998Z" fill="white"/>
<path id="Vector_8" d="M15.1891 46.3998C14.9891 46.3998 14.7891 46.3998 14.4891 46.3998C14.1891 46.3998 13.9891 46.3998 13.8891 46.3998V46.6998C14.1891 46.6998 14.4891 46.7998 14.5891 46.8998C14.7891 46.9998 14.8891 47.0998 14.9891 47.2998C15.0891 47.4998 15.0891 47.7998 15.0891 48.0998V51.8998C15.0891 52.4998 14.9891 53.0998 14.8891 53.5998C14.7891 54.0998 14.4891 54.4998 14.1891 54.7998C13.8891 55.0998 13.3891 55.1998 12.6891 55.1998C12.2891 55.1998 11.8891 55.0998 11.6891 54.9998C11.3891 54.8998 11.1891 54.5998 11.0891 54.3998C10.9891 54.0998 10.8891 53.7998 10.7891 53.4998C10.7891 53.0998 10.6891 52.6998 10.6891 52.2998V47.8998C10.6891 47.5998 10.6891 47.3998 10.7891 47.1998C10.8891 47.0998 10.9891 46.8998 11.0891 46.8998C11.1891 46.7998 11.4891 46.7998 11.7891 46.7998V46.4998C11.5891 46.4998 11.2891 46.4998 10.9891 46.4998C10.6891 46.4998 10.3891 46.4998 9.98909 46.4998C9.58909 46.4998 9.28909 46.4998 8.98909 46.4998C8.68909 46.4998 8.38909 46.4998 8.18909 46.4998V46.7998C8.48909 46.7998 8.68909 46.7998 8.88909 46.8998C8.98909 46.9998 9.08909 47.0998 9.18909 47.1998C9.18909 47.2998 9.28909 47.5998 9.28909 47.8998V51.8998C9.28909 52.4998 9.28909 52.8998 9.38909 53.2998C9.48909 53.6998 9.48909 53.9998 9.68909 54.2998C9.78909 54.5998 9.98909 54.7998 10.2891 55.0998C10.5891 55.3998 10.8891 55.4998 11.2891 55.5998C11.6891 55.6998 12.0891 55.6998 12.4891 55.6998C13.0891 55.6998 13.5891 55.5998 13.9891 55.3998C14.3891 55.1998 14.6891 54.8998 14.8891 54.4998C15.0891 54.1998 15.1891 53.7998 15.2891 53.2998C15.3891 52.7998 15.3891 52.2998 15.3891 51.7998V47.9998C15.3891 47.6998 15.3891 47.3998 15.4891 47.1998C15.5891 46.9998 15.5891 46.8998 15.7891 46.7998C15.8891 46.6998 16.1891 46.6998 16.3891 46.5998V46.2998C16.2891 46.2998 16.0891 46.2998 15.8891 46.2998C15.6891 46.3998 15.3891 46.3998 15.1891 46.3998Z" fill="white"/>
<path id="Vector_9" d="M24.1891 54.5004L21.3891 50.4004L23.0891 47.9004C23.2891 47.6004 23.5891 47.3004 23.7891 47.1004C23.9891 46.9004 24.2891 46.8004 24.5891 46.7004V46.4004C24.4891 46.4004 24.2891 46.4004 24.0891 46.4004C23.8891 46.4004 23.6891 46.4004 23.4891 46.4004C23.3891 46.4004 23.1891 46.4004 22.9891 46.4004C22.7891 46.4004 22.5891 46.4004 22.4891 46.4004C22.2891 46.4004 22.1891 46.4004 21.9891 46.4004V46.7004C22.3891 46.7004 22.5891 46.8004 22.7891 46.9004C22.9891 47.0004 22.9891 47.2004 22.9891 47.5004C22.8891 47.8004 22.7891 48.1004 22.4891 48.6004L21.2891 50.3004L19.3891 47.4004C19.2891 47.2004 19.2891 47.1004 19.3891 47.0004C19.4891 46.9004 19.7891 46.9004 20.1891 46.9004V46.6004C19.9891 46.6004 19.6891 46.6004 19.3891 46.6004C19.0891 46.6004 18.6891 46.6004 18.3891 46.6004C18.0891 46.6004 17.8891 46.6004 17.5891 46.6004C17.3891 46.6004 17.1891 46.6004 16.9891 46.6004V46.9004C17.1891 46.9004 17.2891 47.0004 17.3891 47.0004C17.4891 47.1004 17.5891 47.3004 17.7891 47.5004L20.3891 51.4004L18.5891 54.1004C18.2891 54.5004 18.0891 54.8004 17.7891 55.0004C17.4891 55.2004 17.2891 55.4004 16.9891 55.4004V55.7004C17.0891 55.7004 17.2891 55.7004 17.4891 55.7004C17.6891 55.7004 17.8891 55.7004 18.0891 55.7004C18.1891 55.7004 18.2891 55.7004 18.4891 55.7004C18.6891 55.7004 18.7891 55.7004 18.9891 55.7004C19.1891 55.7004 19.2891 55.7004 19.4891 55.7004C19.6891 55.7004 19.7891 55.7004 19.8891 55.7004V55.4004C19.4891 55.4004 19.2891 55.3004 19.0891 55.2004C18.8891 55.1004 18.7891 54.9004 18.7891 54.6004C18.7891 54.3004 18.9891 54.0004 19.2891 53.5004L20.5891 51.7004L22.7891 55.0004C22.8891 55.2004 22.8891 55.3004 22.7891 55.4004C22.6891 55.5004 22.3891 55.5004 21.9891 55.5004V55.8004C22.1891 55.8004 22.3891 55.8004 22.7891 55.8004C23.1891 55.8004 23.4891 55.8004 23.8891 55.8004C24.1891 55.8004 24.3891 55.8004 24.6891 55.8004C24.8891 55.8004 25.0891 55.8004 25.2891 55.8004V55.5004C25.0891 55.5004 24.9891 55.4004 24.8891 55.4004C24.4891 54.9004 24.2891 54.7004 24.1891 54.5004Z" fill="white"/>
<path id="Vector_10" d="M32.2891 46.3998C32.0891 46.3998 31.8891 46.3998 31.5891 46.3998C31.2891 46.3998 31.0891 46.3998 30.9891 46.3998V46.6998C31.2891 46.6998 31.5891 46.7998 31.6891 46.8998C31.8891 46.9998 31.9891 47.0998 32.0891 47.2998C32.1891 47.4998 32.1891 47.7998 32.1891 48.0998V51.8998C32.1891 52.4998 32.0891 53.0998 31.9891 53.5998C31.8891 54.0998 31.5891 54.4998 31.2891 54.7998C30.9891 55.0998 30.4891 55.1998 29.7891 55.1998C29.3891 55.1998 28.9891 55.0998 28.7891 54.9998C28.4891 54.8998 28.2891 54.5998 28.1891 54.3998C27.9891 53.9998 27.8891 53.6998 27.8891 53.2998C27.8891 52.8998 27.7891 52.4998 27.7891 52.0998V47.6998C27.7891 47.3998 27.7891 47.1998 27.8891 46.9998C27.9891 46.8998 28.0891 46.6998 28.1891 46.6998C28.2891 46.5998 28.5891 46.5998 28.8891 46.5998V46.2998C28.6891 46.2998 28.3891 46.2998 28.0891 46.2998C27.7891 46.2998 27.4891 46.2998 27.0891 46.2998C26.6891 46.2998 26.3891 46.2998 26.0891 46.2998C25.7891 46.2998 25.4891 46.2998 25.2891 46.2998V46.5998C25.5891 46.5998 25.7891 46.5998 25.9891 46.6998C26.0891 46.7998 26.1891 46.8998 26.2891 46.9998C26.2891 47.0998 26.3891 47.3998 26.3891 47.6998V51.6998C26.3891 52.2998 26.3891 52.6998 26.4891 53.0998C26.5891 53.4998 26.5891 53.7998 26.7891 54.0998C26.8891 54.3998 27.0891 54.5998 27.3891 54.8998C27.6891 55.1998 27.9891 55.2998 28.3891 55.3998C28.7891 55.4998 29.1891 55.4998 29.5891 55.4998C30.1891 55.4998 30.6891 55.3998 31.0891 55.1998C31.4891 54.9998 31.7891 54.6998 31.9891 54.2998C32.1891 53.9998 32.2891 53.5998 32.3891 53.0998C32.4891 52.5998 32.4891 52.0998 32.4891 51.5998V47.9998C32.4891 47.6998 32.4891 47.3998 32.5891 47.1998C32.6891 46.9998 32.6891 46.8998 32.8891 46.7998C32.9891 46.6998 33.2891 46.6998 33.4891 46.5998V46.2998C33.3891 46.2998 33.1891 46.2998 32.9891 46.2998C32.6891 46.3998 32.4891 46.3998 32.2891 46.3998Z" fill="white"/>
<path id="Vector_11" d="M41.8891 54.8998C41.7891 54.9998 41.6891 54.9998 41.5891 54.9998C41.3891 54.9998 41.2891 54.8998 41.1891 54.7998C41.0891 54.5998 40.9891 54.3998 40.9891 53.9998L40.6891 52.6998C40.5891 52.1998 40.3891 51.7998 40.0891 51.4998C39.7891 51.1998 39.2891 51.0998 38.6891 50.9998H38.5891C38.8891 50.9998 39.1891 50.8998 39.3891 50.7998C39.8891 50.5998 40.1891 50.3998 40.4891 50.1998C40.7891 49.8998 40.8891 49.6998 41.0891 49.3998C41.1891 49.0998 41.2891 48.7998 41.2891 48.5998C41.2891 48.1998 41.1891 47.7998 40.8891 47.3998C40.6891 47.0998 40.2891 46.7998 39.7891 46.5998C39.2891 46.3998 38.6891 46.2998 37.9891 46.2998C37.7891 46.2998 37.5891 46.2998 37.1891 46.2998C36.7891 46.2998 36.3891 46.2998 35.9891 46.2998C35.6891 46.2998 35.3891 46.2998 35.0891 46.2998C34.7891 46.2998 34.4891 46.2998 34.2891 46.2998V46.5998C34.5891 46.5998 34.7891 46.5998 34.8891 46.6998C34.9891 46.7998 35.0891 46.8998 35.1891 46.9998C35.1891 47.0998 35.2891 47.3998 35.2891 47.6998V53.9998C35.2891 54.2998 35.2891 54.4998 35.1891 54.6998C35.1891 54.8998 35.0891 54.9998 34.8891 54.9998C34.7891 55.0998 34.4891 55.0998 34.2891 55.0998V55.3998C34.4891 55.3998 34.6891 55.3998 35.0891 55.3998C35.3891 55.3998 35.6891 55.3998 36.0891 55.3998C36.3891 55.3998 36.6891 55.3998 37.0891 55.3998C37.3891 55.3998 37.6891 55.3998 37.8891 55.3998V55.0998C37.5891 55.0998 37.3891 54.9998 37.2891 54.9998C37.1891 54.8998 37.0891 54.7998 36.9891 54.6998C36.8891 54.4998 36.8891 54.2998 36.8891 53.9998V51.0998H37.7891H37.9891C38.2891 51.0998 38.5891 51.1998 38.6891 51.2998C38.8891 51.4998 38.9891 51.6998 39.0891 51.8998C39.1891 52.1998 39.2891 52.4998 39.3891 52.7998L39.6891 54.0998C39.7891 54.5998 39.9891 54.9998 40.2891 55.1998C40.5891 55.3998 40.8891 55.4998 41.1891 55.4998C41.5891 55.4998 41.7891 55.3998 42.0891 55.2998C42.2891 55.1998 42.4891 54.9998 42.6891 54.6998L42.4891 54.5998C42.0891 54.7998 41.9891 54.8998 41.8891 54.8998ZM36.8891 46.7998C36.9891 46.6998 37.2891 46.5998 37.5891 46.5998C38.2891 46.5998 38.7891 46.7998 39.0891 47.1998C39.3891 47.5998 39.4891 48.0998 39.4891 48.7998C39.4891 49.1998 39.3891 49.4998 39.2891 49.8998C39.1891 50.1998 38.9891 50.4998 38.6891 50.6998C38.3891 50.8998 37.9891 50.9998 37.3891 50.9998H36.5891V47.8998C36.6891 47.2998 36.7891 46.9998 36.8891 46.7998Z" fill="white"/>
<path id="Vector_12" d="M48.2891 46.3998C48.0891 46.3998 47.7891 46.3998 47.5891 46.3998C47.2891 46.3998 47.0891 46.3998 46.7891 46.3998V46.6998C47.1891 46.6998 47.3891 46.7998 47.5891 46.8998C47.7891 46.9998 47.8891 47.1998 47.8891 47.4998C47.8891 47.7998 47.7891 48.1998 47.4891 48.6998L46.0891 51.4998L43.9891 47.5998C43.8891 47.2998 43.8891 47.0998 43.8891 46.9998C43.9891 46.8998 44.0891 46.7998 44.1891 46.7998C44.3891 46.7998 44.5891 46.6998 44.7891 46.6998V46.3998C44.4891 46.3998 44.1891 46.3998 43.7891 46.3998C43.3891 46.3998 43.0891 46.3998 42.7891 46.3998C42.5891 46.3998 42.2891 46.3998 42.0891 46.3998C41.8891 46.3998 41.6891 46.3998 41.4891 46.3998V46.6998C41.5891 46.6998 41.6891 46.6998 41.7891 46.7998C41.8891 46.8998 42.0891 47.0998 42.1891 47.3998L44.8891 51.9998V53.9998C44.8891 54.2998 44.8891 54.4998 44.7891 54.6998C44.7891 54.8998 44.6891 54.9998 44.4891 54.9998C44.3891 55.0998 44.0891 55.0998 43.7891 55.0998V55.3998C43.9891 55.3998 44.1891 55.3998 44.5891 55.3998C44.8891 55.3998 45.1891 55.3998 45.5891 55.3998C45.8891 55.3998 46.1891 55.3998 46.5891 55.3998C46.8891 55.3998 47.1891 55.3998 47.3891 55.3998V55.0998C47.0891 55.0998 46.8891 54.9998 46.7891 54.9998C46.6891 54.8998 46.5891 54.7998 46.4891 54.6998C46.3891 54.4998 46.3891 54.2998 46.3891 53.9998V51.4998L48.1891 47.8998C48.3891 47.4998 48.5891 47.1998 48.7891 46.9998C48.9891 46.7998 49.0891 46.6998 49.2891 46.5998V46.2998C49.1891 46.2998 48.9891 46.2998 48.8891 46.2998C48.6891 46.3998 48.4891 46.3998 48.2891 46.3998Z" fill="white"/>
<path id="Vector_13" d="M54.9891 47.6998C55.1891 47.2998 55.4891 46.9998 55.7891 46.7998C56.0891 46.5998 56.4891 46.4998 56.8891 46.4998C57.2891 46.4998 57.6891 46.5998 57.9891 46.6998C58.3891 46.7998 58.6891 47.0998 58.8891 47.3998C59.0891 47.5998 59.1891 47.6998 59.2891 47.8998C59.3891 48.0998 59.4891 48.2998 59.4891 48.4998C59.5891 48.6998 59.5891 48.9998 59.6891 49.3998H59.9891C59.9891 48.5998 59.9891 47.9998 59.9891 47.5998C59.9891 47.0998 59.9891 46.7998 59.9891 46.3998H59.8891C59.8891 46.7998 59.7891 46.9998 59.6891 47.0998C59.5891 47.1998 59.4891 47.1998 59.2891 47.0998C58.9891 46.8998 58.6891 46.6998 58.2891 46.4998C57.8891 46.2998 57.4891 46.2998 56.8891 46.2998C56.0891 46.2998 55.2891 46.4998 54.6891 46.8998C54.0891 47.2998 53.5891 47.8998 53.1891 48.5998C52.8891 49.1998 52.6891 49.9998 52.6891 50.9998C52.6891 51.9998 52.8891 52.7998 53.1891 53.4998C53.4891 54.1998 53.9891 54.6998 54.6891 55.0998C55.2891 55.4998 56.0891 55.5998 56.8891 55.5998C57.4891 55.5998 57.8891 55.4998 58.2891 55.3998C58.6891 55.1998 58.9891 54.9998 59.2891 54.7998C59.4891 54.6998 59.5891 54.6998 59.6891 54.7998C59.7891 54.8998 59.7891 55.0998 59.8891 55.4998H60.1891C60.1891 55.1998 60.1891 54.7998 60.1891 54.2998C60.1891 53.7998 60.1891 53.1998 60.1891 52.3998H59.8891C59.7891 52.9998 59.7891 53.3998 59.6891 53.6998C59.5891 53.9998 59.3891 54.2998 59.1891 54.5998C58.9891 54.8998 58.6891 55.0998 58.2891 55.1998C57.8891 55.2998 57.5891 55.3998 57.1891 55.3998C56.7891 55.3998 56.3891 55.2998 55.9891 55.0998C55.6891 54.8998 55.3891 54.5998 55.0891 54.1998C54.8891 53.7998 54.6891 53.3998 54.4891 52.7998C54.3891 52.2998 54.2891 51.6998 54.2891 50.9998C54.2891 50.3998 54.3891 49.7998 54.4891 49.1998C54.5891 48.5998 54.7891 48.0998 54.9891 47.6998Z" fill="white"/>
<path id="Vector_14" d="M68.389 54.2998L65.289 46.2998C65.189 46.2998 65.189 46.2998 65.089 46.2998C64.989 46.2998 64.989 46.2998 64.889 46.2998L61.889 53.9998C61.689 54.3998 61.589 54.6998 61.389 54.8998C61.189 55.0998 60.989 55.1998 60.889 55.1998V55.4998C60.989 55.4998 61.189 55.4998 61.289 55.4998C61.489 55.4998 61.589 55.4998 61.789 55.4998C61.989 55.4998 62.289 55.4998 62.489 55.4998C62.789 55.4998 62.989 55.4998 63.289 55.4998V55.1998C62.989 55.1998 62.789 55.1998 62.589 55.0998C62.389 54.9998 62.289 54.8998 62.189 54.7998C62.089 54.6998 62.089 54.4998 62.089 54.1998C62.089 53.8998 62.189 53.5998 62.389 53.1998L62.889 51.9998H65.889L66.689 54.0998C66.889 54.4998 66.889 54.7998 66.789 54.8998C66.689 54.9998 66.389 55.0998 65.989 55.0998V55.3998C66.189 55.3998 66.389 55.3998 66.689 55.3998C66.989 55.3998 67.289 55.3998 67.689 55.3998C67.989 55.3998 68.289 55.3998 68.489 55.3998C68.789 55.3998 68.989 55.3998 69.189 55.3998V55.0998C69.089 55.0998 68.889 54.9998 68.789 54.8998C68.689 54.7998 68.489 54.5998 68.389 54.2998ZM62.989 51.6998L64.389 47.9998L65.789 51.6998H62.989Z" fill="white"/>
<path id="Vector_15" d="M76.989 54.8998C76.889 54.9998 76.789 54.9998 76.689 54.9998C76.489 54.9998 76.389 54.8998 76.289 54.7998C76.189 54.5998 76.089 54.3998 76.089 53.9998L75.789 52.6998C75.689 52.1998 75.489 51.7998 75.189 51.4998C74.889 51.1998 74.389 51.0998 73.789 50.9998H73.689C73.989 50.9998 74.289 50.8998 74.489 50.7998C74.989 50.5998 75.289 50.3998 75.589 50.1998C75.889 49.8998 75.989 49.6998 76.189 49.3998C76.289 49.0998 76.389 48.7998 76.389 48.5998C76.389 48.1998 76.289 47.7998 75.989 47.3998C75.789 47.0998 75.389 46.7998 74.889 46.5998C74.389 46.3998 73.789 46.2998 73.089 46.2998C72.889 46.2998 72.689 46.2998 72.289 46.2998C71.889 46.2998 71.489 46.2998 71.089 46.2998C70.789 46.2998 70.489 46.2998 70.189 46.2998C69.889 46.2998 69.589 46.2998 69.389 46.2998V46.5998C69.689 46.5998 69.889 46.5998 69.989 46.6998C70.089 46.7998 70.189 46.8998 70.289 46.9998C70.289 47.0998 70.389 47.3998 70.389 47.6998V53.9998C70.389 54.2998 70.389 54.4998 70.289 54.6998C70.289 54.8998 70.189 54.9998 69.989 54.9998C69.889 55.0998 69.589 55.0998 69.389 55.0998V55.3998C69.589 55.3998 69.789 55.3998 70.189 55.3998C70.489 55.3998 70.789 55.3998 71.189 55.3998C71.489 55.3998 71.789 55.3998 72.189 55.3998C72.489 55.3998 72.789 55.3998 72.989 55.3998V55.0998C72.689 55.0998 72.489 54.9998 72.389 54.9998C72.289 54.8998 72.189 54.7998 72.089 54.6998C71.989 54.4998 71.989 54.2998 71.989 53.9998V51.0998H72.889C73.189 51.0998 73.489 51.1998 73.589 51.2998C73.789 51.4998 73.889 51.6998 73.989 51.8998C74.089 52.1998 74.189 52.4998 74.289 52.7998L74.589 54.0998C74.689 54.5998 74.889 54.9998 75.189 55.1998C75.489 55.3998 75.789 55.4998 76.089 55.4998C76.489 55.4998 76.689 55.3998 76.989 55.2998C77.189 55.1998 77.389 54.9998 77.589 54.6998L77.389 54.5998C77.189 54.7998 77.089 54.8998 76.989 54.8998ZM71.989 46.7998C72.089 46.6998 72.389 46.5998 72.689 46.5998C73.389 46.5998 73.889 46.7998 74.189 47.1998C74.489 47.5998 74.589 48.0998 74.589 48.7998C74.589 49.1998 74.489 49.4998 74.389 49.8998C74.289 50.1998 74.089 50.4998 73.789 50.6998C73.489 50.8998 73.089 50.9998 72.489 50.9998H71.689V47.8998C71.789 47.2998 71.889 46.9998 71.989 46.7998Z" fill="white"/>
<path id="Vector_16" d="M81.4891 46.4004C81.2891 46.4004 81.0891 46.4004 80.6891 46.4004C80.2891 46.4004 79.8891 46.4004 79.4891 46.4004C79.1891 46.4004 78.8891 46.4004 78.5891 46.4004C78.2891 46.4004 77.9891 46.4004 77.7891 46.4004V46.7004C78.0891 46.7004 78.2891 46.7004 78.3891 46.8004C78.4891 46.9004 78.5891 47.0004 78.6891 47.1004C78.6891 47.2004 78.7891 47.5004 78.7891 47.8004V54.1004C78.7891 54.4004 78.7891 54.6004 78.6891 54.8004C78.6891 55.0004 78.5891 55.1004 78.3891 55.1004C78.2891 55.2004 77.9891 55.2004 77.7891 55.2004V55.5004C77.9891 55.5004 78.2891 55.5004 78.5891 55.5004C78.8891 55.5004 79.1891 55.5004 79.5891 55.5004C79.9891 55.5004 80.3891 55.5004 80.6891 55.5004C81.0891 55.5004 81.3891 55.5004 81.5891 55.5004V55.2004C81.1891 55.2004 80.9891 55.2004 80.7891 55.1004C80.5891 55.0004 80.4891 54.9004 80.3891 54.8004C80.2891 54.6004 80.2891 54.4004 80.2891 54.1004V51.8004H81.1891C81.8891 51.8004 82.4891 51.7004 82.8891 51.5004C83.3891 51.3004 83.6891 51.1004 83.9891 50.8004C84.2891 50.5004 84.3891 50.2004 84.5891 49.9004C84.7891 49.6004 84.7891 49.2004 84.7891 48.9004C84.7891 48.2004 84.4891 47.6004 83.9891 47.1004C83.2891 46.6004 82.4891 46.4004 81.4891 46.4004ZM82.9891 50.3004C82.8891 50.7004 82.6891 51.0004 82.3891 51.2004C82.0891 51.4004 81.6891 51.5004 81.0891 51.5004H80.2891V47.7004C80.2891 47.3004 80.3891 47.0004 80.4891 46.8004C80.5891 46.7004 80.8891 46.6004 81.1891 46.6004C81.8891 46.6004 82.3891 46.8004 82.6891 47.2004C82.9891 47.6004 83.0891 48.2004 83.0891 49.0004C83.0891 49.5004 83.0891 49.9004 82.9891 50.3004Z" fill="white"/>
<path id="Vector_17" d="M92.1891 53.7002C92.1891 53.3002 92.1891 53.0002 92.1891 52.7002H91.8891C91.7891 53.3002 91.6891 53.8002 91.5891 54.1002C91.4891 54.4002 91.1891 54.7002 90.8891 54.9002C90.5891 55.1002 90.1891 55.1002 89.6891 55.1002H88.8891C88.5891 55.1002 88.3891 55.1002 88.2891 55.0002C88.1891 55.0002 88.0891 54.9002 87.9891 54.7002C87.8891 54.6002 87.8891 54.3002 87.8891 54.0002V51.0002H88.5891C88.9891 51.0002 89.1891 51.1002 89.3891 51.2002C89.5891 51.4002 89.6891 51.6002 89.7891 51.8002C89.8891 52.1002 89.8891 52.3002 89.9891 52.6002H90.2891C90.2891 52.1002 90.1891 51.7002 90.1891 51.5002C90.1891 51.2002 90.1891 51.0002 90.1891 50.8002C90.1891 50.6002 90.1891 50.4002 90.1891 50.1002C90.1891 49.8002 90.1891 49.5002 90.1891 49.0002H89.8891C89.8891 49.2002 89.7891 49.3002 89.7891 49.5002C89.7891 49.7002 89.6891 49.9002 89.5891 50.1002C89.4891 50.3002 89.3891 50.4002 89.1891 50.5002C88.9891 50.6002 88.7891 50.7002 88.5891 50.7002H87.8891V47.6002C87.8891 47.3002 87.8891 47.1002 87.9891 46.9002C88.0891 46.8002 88.0891 46.7002 88.2891 46.6002C88.3891 46.6002 88.5891 46.5002 88.8891 46.5002H89.7891C90.1891 46.5002 90.5891 46.6002 90.7891 46.7002C90.9891 46.8002 91.1891 47.1002 91.2891 47.4002C91.3891 47.7002 91.4891 48.1002 91.5891 48.7002H91.8891C91.8891 48.6002 91.8891 48.5002 91.8891 48.3002C91.8891 48.2002 91.8891 48.0002 91.8891 47.8002C91.8891 47.6002 91.8891 47.4002 91.8891 47.1002C91.8891 46.8002 91.8891 46.5002 91.9891 46.2002C91.5891 46.2002 91.1891 46.2002 90.6891 46.2002C90.1891 46.2002 89.7891 46.2002 89.3891 46.2002C89.1891 46.2002 88.9891 46.2002 88.5891 46.2002C88.2891 46.2002 87.9891 46.2002 87.5891 46.2002C87.1891 46.2002 86.8891 46.2002 86.4891 46.2002C86.0891 46.2002 85.7891 46.2002 85.4891 46.2002V46.5002C85.7891 46.5002 85.9891 46.5002 86.0891 46.6002C86.1891 46.7002 86.2891 46.8002 86.3891 46.9002C86.3891 47.0002 86.4891 47.3002 86.4891 47.6002V53.9002C86.4891 54.2002 86.4891 54.4002 86.3891 54.6002C86.3891 54.8002 86.2891 54.9002 86.0891 54.9002C85.9891 55.0002 85.6891 55.0002 85.4891 55.0002V55.3002C85.7891 55.3002 86.1891 55.3002 86.4891 55.3002C86.8891 55.3002 87.1891 55.3002 87.5891 55.3002C87.9891 55.3002 88.2891 55.3002 88.5891 55.3002C88.8891 55.3002 89.1891 55.3002 89.3891 55.3002C89.7891 55.3002 90.2891 55.3002 90.8891 55.3002C91.3891 55.3002 91.8891 55.3002 92.3891 55.3002C92.3891 55.0002 92.2891 54.6002 92.2891 54.3002C92.1891 54.1002 92.1891 53.8002 92.1891 53.7002Z" fill="white"/>
<path id="Vector_18" d="M100.589 46.4004C100.189 46.4004 99.7891 46.4004 99.3891 46.4004C98.9891 46.4004 98.4891 46.4004 98.0891 46.4004C97.6891 46.4004 97.2891 46.4004 96.8891 46.4004C96.4891 46.4004 96.0891 46.4004 95.6891 46.4004C95.2891 46.4004 94.7891 46.4004 94.3891 46.4004C93.9891 46.4004 93.5891 46.4004 93.1891 46.4004C93.1891 46.8004 93.2891 47.1004 93.2891 47.4004C93.2891 47.7004 93.2891 48.0004 93.2891 48.2004C93.2891 48.4004 93.2891 48.6004 93.2891 48.8004C93.2891 49.0004 93.2891 49.1004 93.2891 49.3004H93.5891C93.6891 48.7004 93.7891 48.2004 93.8891 47.8004C93.9891 47.4004 94.1891 47.2004 94.4891 47.0004C94.7891 46.8004 95.0891 46.8004 95.5891 46.8004H96.1891V54.1004C96.1891 54.4004 96.1891 54.7004 96.0891 54.9004C95.9891 54.9004 95.8891 55.0004 95.6891 55.0004C95.4891 55.1004 95.1891 55.1004 94.8891 55.1004V55.4004C95.0891 55.4004 95.3891 55.4004 95.7891 55.4004C96.1891 55.4004 96.4891 55.4004 96.9891 55.4004C97.3891 55.4004 97.7891 55.4004 98.0891 55.4004C98.4891 55.4004 98.7891 55.4004 98.9891 55.4004V55.1004C98.5891 55.1004 98.3891 55.0004 98.1891 55.0004C97.9891 54.9004 97.8891 54.8004 97.7891 54.7004C97.6891 54.5004 97.6891 54.3004 97.6891 53.9004V46.6004H98.1891C98.6891 46.6004 99.0891 46.7004 99.2891 46.8004C99.5891 47.0004 99.7891 47.2004 99.8891 47.6004C99.9891 48.0004 100.189 48.5004 100.189 49.1004H100.489C100.489 49.0004 100.489 48.8004 100.489 48.6004C100.489 48.4004 100.489 48.2004 100.489 48.0004C100.489 47.8004 100.489 47.6004 100.489 47.2004C100.589 47.1004 100.589 46.7004 100.589 46.4004Z" fill="white"/>
<path id="Vector_19" d="M106.389 51.1C106.089 50.8 105.689 50.6 105.289 50.3C104.889 50 104.489 49.8 104.189 49.6C103.889 49.4 103.589 49.1 103.389 48.9C103.189 48.6 103.089 48.3 103.089 48C103.089 47.6 103.189 47.2 103.489 47C103.789 46.7 104.089 46.6 104.589 46.6C105.089 46.6 105.489 46.7 105.789 47C106.089 47.2 106.289 47.6 106.489 48C106.689 48.4 106.689 48.8 106.789 49.2H107.089C107.089 48.6 107.089 48.2 107.089 47.9C107.089 47.6 107.089 47.3 107.089 47.1C107.089 46.9 107.089 46.7 107.089 46.6H106.789C106.789 46.8 106.689 46.9 106.689 47C106.689 47.1 106.589 47.1 106.489 47.1C106.389 47.1 106.389 47.1 106.289 47.1C106.189 47.1 106.189 47 106.089 47C105.889 46.9 105.689 46.8 105.489 46.7C105.289 46.6 104.889 46.5 104.489 46.5C104.089 46.5 103.589 46.6 103.289 46.7C102.889 46.9 102.589 47.1 102.389 47.4C102.189 47.7 101.989 48.2 101.989 48.7C101.989 49.2 102.089 49.6 102.289 49.9C102.489 50.2 102.789 50.5 103.089 50.8C103.389 51.1 103.789 51.3 104.189 51.6C104.589 51.8 104.889 52.1 105.189 52.3C105.489 52.5 105.689 52.8 105.889 53C106.089 53.3 106.089 53.6 106.089 53.9C106.089 54.3 105.989 54.6 105.889 54.8C105.689 55 105.489 55.2 105.289 55.3C105.089 55.4 104.789 55.5 104.489 55.5C103.989 55.5 103.489 55.4 103.189 55.1C102.889 54.8 102.589 54.5 102.489 54C102.289 53.5 102.189 53 102.189 52.5H101.889C101.889 53.1 101.889 53.6 101.889 54C101.889 54.4 101.889 54.7 101.889 55C101.889 55.3 101.889 55.5 101.889 55.7H102.189C102.189 55.5 102.289 55.4 102.289 55.3C102.289 55.2 102.389 55.2 102.489 55.2C102.589 55.2 102.689 55.3 102.889 55.4C103.089 55.5 103.289 55.6 103.589 55.7C103.889 55.8 104.289 55.9 104.689 55.9C105.189 55.9 105.689 55.8 106.089 55.6C106.489 55.4 106.889 55.2 107.089 54.8C107.389 54.4 107.489 54 107.489 53.4C107.489 52.9 107.389 52.6 107.189 52.2C106.989 51.6 106.689 51.3 106.389 51.1Z" fill="white"/>
<path id="Vector_20" d="M121.589 46.3998C121.389 46.3998 121.089 46.3998 120.889 46.3998C120.589 46.3998 120.389 46.3998 120.089 46.3998V46.6998C120.389 46.6998 120.689 46.7998 120.889 46.8998C121.089 46.9998 121.189 47.1998 121.189 47.4998C121.189 47.7998 121.089 48.1998 120.989 48.6998L119.489 53.2998L117.689 47.6998C117.589 47.3998 117.589 47.0998 117.589 46.9998C117.589 46.8998 117.689 46.7998 117.889 46.6998C117.989 46.6998 118.289 46.5998 118.489 46.5998V46.2998C118.289 46.2998 118.089 46.2998 117.789 46.2998C117.489 46.2998 117.189 46.2998 116.789 46.2998C116.589 46.2998 116.289 46.2998 115.989 46.2998C115.689 46.2998 115.489 46.2998 115.289 46.2998V46.5998C115.389 46.5998 115.489 46.6998 115.689 46.7998C115.789 46.8998 115.889 47.0998 116.089 47.3998L116.489 48.6998L114.989 53.1998L113.089 47.5998C112.989 47.3998 112.989 47.1998 112.989 46.9998C112.989 46.8998 112.989 46.6998 113.089 46.6998C113.189 46.5998 113.289 46.5998 113.489 46.5998V46.2998C113.289 46.2998 113.089 46.2998 112.889 46.2998C112.589 46.2998 112.389 46.2998 112.089 46.2998C111.789 46.2998 111.589 46.2998 111.289 46.2998C110.989 46.2998 110.789 46.2998 110.589 46.2998V46.5998C110.689 46.5998 110.889 46.6998 110.989 46.7998C111.189 46.8998 111.289 47.0998 111.389 47.3998L114.189 55.3998H114.289H114.389H114.489H114.589L116.589 49.0998L118.689 55.3998H118.789H118.889H118.989H119.089L121.389 47.7998C121.489 47.3998 121.689 47.0998 121.889 46.8998C122.089 46.6998 122.289 46.5998 122.389 46.5998V46.2998C122.289 46.2998 122.089 46.2998 121.989 46.2998C121.989 46.3998 121.789 46.3998 121.589 46.3998Z" fill="white"/>
<path id="Vector_21" d="M124.789 46.4004C124.389 46.4004 124.089 46.4004 123.789 46.4004C123.489 46.4004 123.189 46.4004 122.989 46.4004V46.7004C123.289 46.7004 123.489 46.7004 123.589 46.8004C123.689 46.9004 123.789 47.0004 123.889 47.1004C123.889 47.2004 123.989 47.5004 123.989 47.8004V54.1004C123.989 54.4004 123.989 54.6004 123.889 54.8004C123.889 55.0004 123.789 55.1004 123.589 55.1004C123.489 55.2004 123.189 55.2004 122.989 55.2004V55.5004C123.189 55.5004 123.389 55.5004 123.789 55.5004C124.089 55.5004 124.389 55.5004 124.789 55.5004C125.089 55.5004 125.389 55.5004 125.789 55.5004C126.089 55.5004 126.389 55.5004 126.589 55.5004V55.2004C126.289 55.2004 126.089 55.1004 125.989 55.1004C125.889 55.0004 125.789 54.9004 125.689 54.8004C125.589 54.6004 125.589 54.4004 125.589 54.1004V47.8004C125.589 47.5004 125.589 47.3004 125.689 47.1004C125.789 47.0004 125.789 46.8004 125.989 46.8004C126.089 46.7004 126.389 46.7004 126.589 46.7004V46.4004C126.389 46.4004 126.089 46.4004 125.789 46.4004C125.389 46.4004 125.089 46.4004 124.789 46.4004Z" fill="white"/>
<path id="Vector_22" d="M134.789 46.4004C134.389 46.4004 133.989 46.4004 133.589 46.4004C133.189 46.4004 132.689 46.4004 132.289 46.4004C131.889 46.4004 131.489 46.4004 131.089 46.4004C130.689 46.4004 130.289 46.4004 129.889 46.4004C129.489 46.4004 128.989 46.4004 128.589 46.4004C128.189 46.4004 127.789 46.4004 127.389 46.4004C127.389 46.8004 127.489 47.1004 127.489 47.4004C127.489 47.7004 127.489 48.0004 127.489 48.2004C127.489 48.4004 127.489 48.6004 127.489 48.8004C127.489 49.0004 127.489 49.1004 127.489 49.3004H127.789C127.889 48.7004 127.989 48.2004 128.089 47.8004C128.189 47.4004 128.389 47.2004 128.689 47.0004C128.989 46.8004 129.289 46.8004 129.789 46.8004H130.389V54.1004C130.389 54.4004 130.389 54.7004 130.289 54.9004C130.189 55.1004 130.089 55.2004 129.889 55.2004C129.689 55.3004 129.389 55.3004 129.089 55.3004V55.6004C129.289 55.6004 129.589 55.6004 129.989 55.6004C130.389 55.6004 130.689 55.6004 131.189 55.6004C131.589 55.6004 131.989 55.6004 132.289 55.6004C132.689 55.6004 132.989 55.6004 133.189 55.6004V55.3004C132.789 55.3004 132.589 55.2004 132.389 55.2004C132.189 55.1004 132.089 55.0004 131.989 54.9004C131.889 54.7004 131.889 54.5004 131.889 54.1004V46.8004H132.389C132.889 46.8004 133.289 46.9004 133.489 47.0004C133.789 47.2004 133.989 47.4004 134.089 47.8004C134.189 48.2004 134.389 48.7004 134.389 49.3004H134.689C134.689 49.2004 134.689 49.0004 134.689 48.8004C134.689 48.6004 134.689 48.4004 134.689 48.2004C134.689 48.0004 134.689 47.8004 134.689 47.4004C134.689 47.1004 134.689 46.7004 134.789 46.4004Z" fill="white"/>
<path id="Vector_23" d="M142.689 46.4004C142.389 46.4004 142.089 46.4004 141.789 46.4004C141.489 46.4004 141.189 46.4004 140.989 46.4004V46.7004C141.289 46.7004 141.489 46.7004 141.589 46.8004C141.689 46.9004 141.789 47.0004 141.889 47.1004C141.889 47.2004 141.989 47.5004 141.989 47.8004V50.8004H138.089V47.8004C138.089 47.5004 138.089 47.3004 138.189 47.1004C138.289 47.0004 138.289 46.8004 138.489 46.8004C138.589 46.7004 138.889 46.7004 139.089 46.7004V46.4004C138.889 46.4004 138.589 46.4004 138.289 46.4004C137.989 46.4004 137.689 46.4004 137.289 46.4004C136.889 46.4004 136.589 46.4004 136.289 46.4004C135.989 46.4004 135.689 46.4004 135.489 46.4004V46.7004C135.789 46.7004 135.989 46.7004 136.089 46.8004C136.189 46.9004 136.289 47.0004 136.389 47.1004C136.389 47.2004 136.489 47.5004 136.489 47.8004V54.1004C136.489 54.4004 136.489 54.6004 136.389 54.8004C136.389 55.0004 136.289 55.1004 136.089 55.1004C135.989 55.2004 135.689 55.2004 135.489 55.2004V55.5004C135.689 55.5004 135.889 55.5004 136.289 55.5004C136.589 55.5004 136.889 55.5004 137.289 55.5004C137.589 55.5004 137.889 55.5004 138.289 55.5004C138.589 55.5004 138.889 55.5004 139.089 55.5004V55.2004C138.789 55.2004 138.589 55.1004 138.489 55.1004C138.389 55.0004 138.289 54.9004 138.189 54.8004C138.089 54.6004 138.089 54.4004 138.089 54.1004V51.0004H141.989V54.1004C141.989 54.4004 141.989 54.6004 141.889 54.8004C141.889 55.0004 141.789 55.1004 141.589 55.1004C141.489 55.2004 141.189 55.2004 140.889 55.2004V55.5004C141.089 55.5004 141.389 55.5004 141.689 55.5004C141.989 55.5004 142.289 55.5004 142.589 55.5004C142.989 55.5004 143.289 55.5004 143.589 55.5004C143.889 55.5004 144.189 55.5004 144.289 55.5004V55.2004C143.989 55.2004 143.789 55.1004 143.689 55.1004C143.589 55.0004 143.489 54.9004 143.389 54.8004C143.289 54.6004 143.289 54.4004 143.289 54.1004V47.8004C143.289 47.5004 143.289 47.3004 143.389 47.1004C143.489 47.0004 143.489 46.8004 143.689 46.8004C143.789 46.7004 144.089 46.7004 144.289 46.7004V46.4004C144.089 46.4004 143.889 46.4004 143.589 46.4004C143.389 46.4004 143.089 46.4004 142.689 46.4004Z" fill="white"/>
<path id="Vector_24" d="M150.989 47.6998C151.189 47.2998 151.489 46.9998 151.789 46.7998C152.089 46.5998 152.489 46.4998 152.889 46.4998C153.289 46.4998 153.689 46.5998 153.989 46.6998C154.389 46.7998 154.689 47.0998 154.889 47.3998C155.089 47.5998 155.189 47.6998 155.289 47.8998C155.389 48.0998 155.489 48.2998 155.489 48.4998C155.589 48.6998 155.589 48.9998 155.689 49.3998H155.989C155.989 48.5998 155.989 47.9998 155.989 47.5998C155.989 47.0998 155.989 46.7998 155.989 46.3998H155.689C155.689 46.7998 155.589 46.9998 155.489 47.0998C155.389 47.1998 155.289 47.1998 155.089 47.0998C154.789 46.8998 154.489 46.6998 154.089 46.4998C153.689 46.2998 153.289 46.2998 152.689 46.2998C151.889 46.2998 151.089 46.4998 150.489 46.8998C149.889 47.2998 149.389 47.8998 148.989 48.5998C148.589 49.2998 148.489 50.0998 148.489 51.0998C148.489 52.0998 148.689 52.8998 148.989 53.5998C149.289 54.2998 149.789 54.7998 150.489 55.1998C151.089 55.5998 151.889 55.6998 152.689 55.6998C153.289 55.6998 153.689 55.5998 154.089 55.4998C154.489 55.2998 154.789 55.0998 155.089 54.8998C155.289 54.7998 155.389 54.7998 155.489 54.8998C155.589 54.9998 155.589 55.1998 155.689 55.5998H155.989C155.989 55.2998 155.989 54.8998 155.989 54.3998C155.989 53.8998 155.989 53.2998 155.989 52.4998H155.689C155.589 53.0998 155.589 53.4998 155.489 53.7998C155.389 54.0998 155.189 54.3998 154.989 54.6998C154.789 54.9998 154.489 55.1998 154.089 55.2998C153.689 55.3998 153.389 55.4998 152.989 55.4998C152.589 55.4998 152.189 55.3998 151.789 55.1998C151.489 54.9998 151.189 54.6998 150.889 54.2998C150.689 53.8998 150.489 53.4998 150.289 52.8998C150.189 52.3998 150.089 51.7998 150.089 51.0998C150.089 50.4998 150.189 49.8998 150.289 49.2998C150.589 48.5998 150.789 48.0998 150.989 47.6998Z" fill="white"/>
<path id="Vector_25" d="M163.989 46.7002C163.389 46.3002 162.589 46.2002 161.789 46.2002C160.989 46.2002 160.189 46.4002 159.589 46.8002C158.989 47.2002 158.489 47.8002 158.089 48.5002C157.689 49.2002 157.589 50.0002 157.589 51.0002C157.589 52.0002 157.789 52.8002 158.089 53.5002C158.389 54.2002 158.889 54.7002 159.589 55.1002C160.189 55.5002 160.989 55.6002 161.789 55.6002C162.589 55.6002 163.289 55.4002 163.989 55.0002C164.589 54.6002 165.089 54.0002 165.489 53.3002C165.889 52.6002 165.989 51.8002 165.989 50.8002C165.989 49.8002 165.789 49.0002 165.489 48.3002C165.089 47.6002 164.589 47.1002 163.989 46.7002ZM164.089 53.2002C163.889 53.9002 163.589 54.4002 163.189 54.8002C162.789 55.2002 162.389 55.4002 161.789 55.4002C161.289 55.4002 160.789 55.2002 160.389 54.9002C159.989 54.5002 159.689 54.0002 159.389 53.4002C159.189 52.7002 158.989 51.9002 158.989 51.0002C158.989 50.1002 159.089 49.3002 159.289 48.7002C159.489 48.0002 159.789 47.5002 160.189 47.1002C160.589 46.7002 160.989 46.5002 161.589 46.5002C162.089 46.5002 162.589 46.7002 162.989 47.0002C163.389 47.4002 163.689 47.9002 163.989 48.5002C164.189 49.2002 164.389 49.9002 164.389 50.9002C164.389 51.7002 164.289 52.5002 164.089 53.2002Z" fill="white"/>
<path id="Vector_26" d="M173.989 46.3998C173.789 46.3998 173.489 46.3998 173.289 46.3998C172.989 46.3998 172.789 46.3998 172.689 46.3998V46.6998C172.989 46.6998 173.289 46.7998 173.489 46.8998C173.689 46.9998 173.789 47.0998 173.789 47.2998C173.889 47.4998 173.889 47.7998 173.889 48.0998V53.0998L169.189 46.3998C169.089 46.3998 168.889 46.3998 168.689 46.3998C168.489 46.3998 168.289 46.3998 168.189 46.3998C167.989 46.3998 167.789 46.3998 167.589 46.3998C167.389 46.3998 167.189 46.3998 167.089 46.3998V46.6998C167.389 46.6998 167.589 46.6998 167.689 46.7998C167.789 46.8998 167.889 46.9998 167.989 47.0998C168.089 47.1998 168.089 47.4998 168.089 47.7998V53.7998C168.089 54.0998 168.089 54.3998 167.989 54.5998C167.889 54.7998 167.889 54.8998 167.689 54.9998C167.589 55.0998 167.289 55.0998 167.089 55.1998V55.4998C167.189 55.4998 167.389 55.4998 167.589 55.4998C167.789 55.4998 167.989 55.4998 168.189 55.4998C168.389 55.4998 168.689 55.4998 168.889 55.4998C169.189 55.4998 169.389 55.4998 169.489 55.4998V55.1998C169.189 55.1998 168.889 55.0998 168.689 54.9998C168.489 54.8998 168.389 54.7998 168.389 54.5998C168.289 54.3998 168.289 54.0998 168.289 53.7998V47.6998L173.689 55.5998C173.789 55.5998 173.789 55.5998 173.889 55.5998C173.989 55.5998 173.989 55.5998 174.089 55.5998V47.9998C174.089 47.6998 174.089 47.3998 174.189 47.1998C174.189 46.9998 174.289 46.8998 174.489 46.7998C174.589 46.6998 174.889 46.6998 175.089 46.5998V46.2998C174.989 46.2998 174.789 46.2998 174.589 46.2998C174.389 46.3998 174.189 46.3998 173.989 46.3998Z" fill="white"/>
<path id="Vector_27" d="M182.589 46.4004C182.189 46.4004 181.789 46.4004 181.289 46.4004C180.789 46.4004 180.389 46.4004 179.989 46.4004C179.789 46.4004 179.589 46.4004 179.189 46.4004C178.889 46.4004 178.589 46.4004 178.189 46.4004C177.789 46.4004 177.489 46.4004 177.089 46.4004C176.689 46.4004 176.389 46.4004 176.089 46.4004V46.7004C176.389 46.7004 176.589 46.7004 176.689 46.8004C176.789 46.9004 176.889 47.0004 176.989 47.1004C176.989 47.2004 177.089 47.5004 177.089 47.8004V54.1004C177.089 54.4004 177.089 54.6004 176.989 54.8004C176.989 55.0004 176.889 55.1004 176.689 55.1004C176.589 55.2004 176.289 55.2004 176.089 55.2004V55.5004C176.289 55.5004 176.589 55.5004 176.889 55.5004C177.189 55.5004 177.489 55.5004 177.889 55.5004C178.289 55.5004 178.689 55.5004 178.989 55.5004C179.389 55.5004 179.689 55.5004 179.889 55.5004V55.2004C179.489 55.2004 179.289 55.2004 179.089 55.1004C178.889 55.0004 178.789 54.9004 178.689 54.8004C178.589 54.6004 178.589 54.4004 178.589 54.1004V51.2004H179.389C179.789 51.2004 179.989 51.3004 180.189 51.4004C180.389 51.6004 180.489 51.8004 180.589 52.0004C180.689 52.3004 180.689 52.5004 180.789 52.8004H181.089C181.089 52.3004 180.989 51.9004 180.989 51.7004C180.989 51.4004 180.989 51.2004 180.989 51.0004C180.989 50.8004 180.989 50.6004 180.989 50.3004C180.989 50.0004 180.989 49.7004 180.989 49.2004H180.689C180.689 49.4004 180.589 49.5004 180.589 49.7004C180.589 49.9004 180.489 50.1004 180.389 50.3004C180.289 50.5004 180.189 50.6004 179.989 50.7004C179.789 50.8004 179.589 50.9004 179.389 50.9004H178.589V47.7004C178.589 47.4004 178.589 47.2004 178.689 47.0004C178.789 46.9004 178.789 46.8004 178.989 46.7004C179.089 46.7004 179.289 46.6004 179.589 46.6004H180.289C180.789 46.6004 181.189 46.7004 181.389 46.8004C181.689 47.0004 181.889 47.2004 181.989 47.6004C182.089 48.0004 182.189 48.4004 182.289 49.1004H182.589C182.589 49.0004 182.589 48.8004 182.589 48.6004C182.589 48.4004 182.589 48.2004 182.589 48.0004C182.589 47.8004 182.589 47.6004 182.589 47.3004C182.489 47.0004 182.489 46.7004 182.589 46.4004Z" fill="white"/>
<path id="Vector_28" d="M185.189 46.4004C184.789 46.4004 184.489 46.4004 184.189 46.4004C183.889 46.4004 183.589 46.4004 183.389 46.4004V46.7004C183.689 46.7004 183.889 46.7004 183.989 46.8004C184.089 46.9004 184.189 47.0004 184.289 47.1004C184.289 47.2004 184.389 47.5004 184.389 47.8004V54.1004C184.389 54.4004 184.389 54.6004 184.289 54.8004C184.289 55.0004 184.189 55.1004 183.989 55.1004C183.889 55.2004 183.589 55.2004 183.389 55.2004V55.5004C183.589 55.5004 183.789 55.5004 184.189 55.5004C184.489 55.5004 184.789 55.5004 185.189 55.5004C185.489 55.5004 185.789 55.5004 186.189 55.5004C186.489 55.5004 186.789 55.5004 186.989 55.5004V55.2004C186.689 55.2004 186.489 55.1004 186.389 55.1004C186.289 55.0004 186.189 54.9004 186.089 54.8004C185.989 54.6004 185.989 54.4004 185.989 54.1004V47.8004C185.989 47.5004 185.989 47.3004 186.089 47.1004C186.189 47.0004 186.189 46.8004 186.389 46.8004C186.489 46.7004 186.789 46.7004 186.989 46.7004V46.4004C186.789 46.4004 186.489 46.4004 186.189 46.4004C185.789 46.4004 185.489 46.4004 185.189 46.4004Z" fill="white"/>
<path id="Vector_29" d="M191.489 46.4004C191.289 46.4004 190.989 46.4004 190.589 46.4004C190.189 46.4004 189.889 46.4004 189.589 46.4004C189.289 46.4004 188.989 46.4004 188.689 46.4004C188.389 46.4004 188.089 46.4004 187.889 46.4004V46.7004C188.189 46.7004 188.389 46.7004 188.489 46.8004C188.589 46.9004 188.689 47.0004 188.789 47.1004C188.789 47.2004 188.889 47.5004 188.889 47.8004V54.1004C188.889 54.4004 188.889 54.6004 188.789 54.8004C188.789 55.0004 188.689 55.1004 188.489 55.1004C188.389 55.2004 188.089 55.2004 187.889 55.2004V55.5004C188.089 55.5004 188.289 55.5004 188.689 55.5004C188.989 55.5004 189.289 55.5004 189.589 55.5004C189.789 55.5004 189.989 55.5004 190.189 55.5004C190.389 55.5004 190.689 55.5004 190.889 55.5004C191.089 55.5004 191.289 55.5004 191.389 55.5004C192.389 55.5004 193.289 55.3004 193.989 54.9004C194.689 54.5004 195.289 54.0004 195.589 53.3004C195.989 52.6004 196.189 51.8004 196.189 50.9004C196.189 49.5004 195.789 48.4004 195.089 47.6004C194.289 46.8004 193.089 46.4004 191.489 46.4004ZM194.289 53.2004C194.089 53.8004 193.789 54.3004 193.289 54.7004C192.789 55.0004 192.189 55.2004 191.289 55.2004C190.889 55.2004 190.689 55.1004 190.489 55.0004C190.389 54.9004 190.289 54.6004 190.289 54.1004V47.7004C190.289 47.3004 190.389 47.0004 190.489 46.8004C190.589 46.7004 190.889 46.6004 191.289 46.6004C192.089 46.6004 192.789 46.8004 193.289 47.1004C193.789 47.4004 194.089 47.9004 194.289 48.5004C194.489 49.1004 194.589 49.9004 194.589 50.9004C194.589 51.8004 194.489 52.6004 194.289 53.2004Z" fill="white"/>
<path id="Vector_30" d="M203.889 53.7002C203.889 53.3002 203.889 53.0002 203.889 52.7002H203.589C203.489 53.3002 203.389 53.8002 203.289 54.1002C203.189 54.4002 202.889 54.7002 202.589 54.9002C202.289 55.1002 201.889 55.1002 201.389 55.1002H200.589C200.289 55.1002 200.089 55.1002 199.989 55.0002C199.889 55.0002 199.789 54.9002 199.689 54.7002C199.589 54.6002 199.589 54.3002 199.589 54.0002V51.0002H200.289C200.689 51.0002 200.889 51.1002 201.089 51.2002C201.289 51.4002 201.389 51.6002 201.489 51.8002C201.589 52.1002 201.589 52.3002 201.689 52.6002H201.989C201.989 52.1002 201.889 51.7002 201.889 51.5002C201.889 51.2002 201.889 51.0002 201.889 50.8002C201.889 50.6002 201.889 50.4002 201.889 50.1002C201.889 49.8002 201.889 49.5002 201.889 49.0002H201.589C201.589 49.2002 201.489 49.3002 201.489 49.5002C201.489 49.7002 201.389 49.9002 201.289 50.1002C201.189 50.3002 201.089 50.4002 200.889 50.5002C200.689 50.6002 200.489 50.7002 200.289 50.7002H199.589V47.6002C199.589 47.3002 199.589 47.1002 199.689 46.9002C199.789 46.8002 199.789 46.7002 199.989 46.6002C200.089 46.6002 200.289 46.5002 200.589 46.5002H201.489C201.889 46.5002 202.289 46.6002 202.489 46.7002C202.689 46.8002 202.889 47.1002 202.989 47.4002C203.089 47.7002 203.189 48.1002 203.289 48.7002H203.589C203.589 48.6002 203.589 48.5002 203.589 48.3002C203.589 48.2002 203.589 48.0002 203.589 47.8002C203.589 47.6002 203.589 47.4002 203.589 47.1002C203.589 46.8002 203.589 46.5002 203.689 46.2002C203.289 46.2002 202.889 46.2002 202.389 46.2002C201.889 46.2002 201.489 46.2002 201.089 46.2002C200.889 46.2002 200.689 46.2002 200.289 46.2002C199.989 46.2002 199.689 46.2002 199.289 46.2002C198.889 46.2002 198.589 46.2002 198.189 46.2002C197.789 46.2002 197.489 46.2002 197.189 46.2002V46.5002C197.489 46.5002 197.689 46.5002 197.789 46.6002C197.889 46.7002 197.989 46.8002 198.089 46.9002C198.089 47.0002 198.189 47.3002 198.189 47.6002V53.9002C198.189 54.2002 198.189 54.4002 198.089 54.6002C198.089 54.8002 197.989 54.9002 197.789 54.9002C197.689 55.0002 197.389 55.0002 197.189 55.0002V55.3002C197.489 55.3002 197.889 55.3002 198.189 55.3002C198.589 55.3002 198.889 55.3002 199.289 55.3002C199.689 55.3002 199.989 55.3002 200.289 55.3002C200.589 55.3002 200.889 55.3002 201.089 55.3002C201.489 55.3002 201.989 55.3002 202.589 55.3002C203.089 55.3002 203.589 55.3002 204.089 55.3002C204.089 55.0002 203.989 54.6002 203.989 54.3002C203.889 54.1002 203.889 53.8002 203.889 53.7002Z" fill="white"/>
<path id="Vector_31" d="M212.089 46.3998C211.889 46.3998 211.589 46.3998 211.389 46.3998C211.089 46.3998 210.889 46.3998 210.789 46.3998V46.6998C211.089 46.6998 211.389 46.7998 211.589 46.8998C211.789 46.9998 211.889 47.0998 211.889 47.2998C211.989 47.4998 211.989 47.7998 211.989 48.0998V53.0998L207.289 46.3998C207.189 46.3998 206.989 46.3998 206.789 46.3998C206.589 46.3998 206.389 46.3998 206.289 46.3998C206.089 46.3998 205.889 46.3998 205.689 46.3998C205.489 46.3998 205.289 46.3998 205.189 46.3998V46.6998C205.489 46.6998 205.689 46.6998 205.789 46.7998C205.889 46.8998 205.989 46.9998 206.089 47.0998C206.189 47.1998 206.189 47.4998 206.189 47.7998V53.7998C206.189 54.0998 206.189 54.3998 206.089 54.5998C205.989 54.7998 205.989 54.8998 205.789 54.9998C205.689 55.0998 205.389 55.0998 205.189 55.1998V55.4998C205.289 55.4998 205.489 55.4998 205.689 55.4998C205.889 55.4998 206.089 55.4998 206.289 55.4998C206.489 55.4998 206.789 55.4998 206.989 55.4998C207.289 55.4998 207.489 55.4998 207.589 55.4998V55.1998C207.289 55.1998 206.989 55.0998 206.789 54.9998C206.589 54.8998 206.489 54.7998 206.489 54.5998C206.389 54.3998 206.389 54.0998 206.389 53.7998V47.6998L211.789 55.5998C211.889 55.5998 211.889 55.5998 211.989 55.5998C212.089 55.5998 212.089 55.5998 212.189 55.5998V47.9998C212.189 47.6998 212.189 47.3998 212.289 47.1998C212.289 46.9998 212.389 46.8998 212.589 46.7998C212.689 46.6998 212.989 46.6998 213.189 46.5998V46.2998C213.089 46.2998 212.889 46.2998 212.689 46.2998C212.489 46.3998 212.289 46.3998 212.089 46.3998Z" fill="white"/>
<path id="Vector_32" d="M216.489 47.6998C216.689 47.2998 216.989 46.9998 217.289 46.7998C217.589 46.5998 217.989 46.4998 218.389 46.4998C218.789 46.4998 219.189 46.5998 219.489 46.6998C219.889 46.7998 220.189 47.0998 220.389 47.3998C220.589 47.5998 220.689 47.6998 220.789 47.8998C220.889 48.0998 220.989 48.2998 220.989 48.4998C221.089 48.6998 221.089 48.9998 221.189 49.3998H221.489C221.489 48.5998 221.489 47.9998 221.489 47.5998C221.489 47.0998 221.489 46.7998 221.489 46.3998H221.189C221.189 46.7998 221.089 46.9998 220.989 47.0998C220.889 47.1998 220.789 47.1998 220.589 47.0998C220.289 46.8998 219.989 46.6998 219.589 46.4998C219.189 46.2998 218.789 46.2998 218.189 46.2998C217.389 46.2998 216.589 46.4998 215.989 46.8998C215.389 47.2998 214.889 47.8998 214.489 48.5998C214.089 49.2998 213.989 50.0998 213.989 51.0998C213.989 52.0998 214.189 52.8998 214.489 53.5998C214.789 54.2998 215.289 54.7998 215.989 55.1998C216.589 55.5998 217.389 55.6998 218.189 55.6998C218.789 55.6998 219.189 55.5998 219.589 55.4998C219.989 55.2998 220.289 55.0998 220.589 54.8998C220.789 54.7998 220.889 54.7998 220.989 54.8998C221.089 54.9998 221.089 55.1998 221.189 55.5998H221.489C221.489 55.2998 221.489 54.8998 221.489 54.3998C221.489 53.8998 221.489 53.2998 221.489 52.4998H221.189C221.089 53.0998 221.089 53.4998 220.989 53.7998C220.889 54.0998 220.689 54.3998 220.489 54.6998C220.289 54.9998 219.989 55.1998 219.589 55.2998C219.189 55.3998 218.889 55.4998 218.489 55.4998C218.089 55.4998 217.689 55.3998 217.289 55.1998C216.989 54.9998 216.689 54.6998 216.389 54.2998C216.189 53.8998 215.989 53.4998 215.789 52.8998C215.689 52.3998 215.589 51.7998 215.589 51.0998C215.589 50.4998 215.689 49.8998 215.789 49.2998C216.089 48.5998 216.289 48.0998 216.489 47.6998Z" fill="white"/>
<path id="Vector_33" d="M229.589 53.7002C229.589 53.3002 229.589 53.0002 229.589 52.7002H229.289C229.189 53.3002 229.089 53.8002 228.989 54.1002C228.889 54.4002 228.589 54.7002 228.289 54.9002C227.989 55.1002 227.589 55.1002 227.089 55.1002H226.289C225.989 55.1002 225.789 55.1002 225.689 55.0002C225.589 55.0002 225.489 54.9002 225.389 54.7002C225.289 54.6002 225.289 54.3002 225.289 54.0002V51.0002H225.989C226.389 51.0002 226.589 51.1002 226.789 51.2002C226.989 51.4002 227.089 51.6002 227.189 51.8002C227.289 52.1002 227.289 52.3002 227.389 52.6002H227.689C227.689 52.1002 227.589 51.7002 227.589 51.5002C227.589 51.2002 227.589 51.0002 227.589 50.8002C227.589 50.6002 227.589 50.4002 227.589 50.1002C227.589 49.8002 227.589 49.5002 227.589 49.0002H227.289C227.289 49.2002 227.189 49.3002 227.189 49.5002C227.189 49.7002 227.089 49.9002 226.989 50.1002C226.889 50.3002 226.789 50.4002 226.589 50.5002C226.389 50.6002 226.189 50.7002 225.989 50.7002H225.289V47.6002C225.289 47.3002 225.289 47.1002 225.389 46.9002C225.489 46.8002 225.489 46.7002 225.689 46.6002C225.789 46.6002 225.989 46.5002 226.289 46.5002H227.189C227.589 46.5002 227.989 46.6002 228.189 46.7002C228.389 46.8002 228.589 47.1002 228.689 47.4002C228.789 47.7002 228.889 48.1002 228.989 48.7002H229.289C229.289 48.6002 229.289 48.5002 229.289 48.3002C229.289 48.2002 229.289 48.0002 229.289 47.8002C229.289 47.6002 229.289 47.4002 229.289 47.1002C229.289 46.8002 229.289 46.5002 229.389 46.2002C228.989 46.2002 228.589 46.2002 228.089 46.2002C227.589 46.2002 227.189 46.2002 226.789 46.2002C226.589 46.2002 226.389 46.2002 225.989 46.2002C225.689 46.2002 225.389 46.2002 224.989 46.2002C224.589 46.2002 224.289 46.2002 223.889 46.2002C223.489 46.2002 223.189 46.2002 222.889 46.2002V46.5002C223.189 46.5002 223.389 46.5002 223.489 46.6002C223.589 46.7002 223.689 46.8002 223.789 46.9002C223.789 47.0002 223.889 47.3002 223.889 47.6002V53.9002C223.889 54.2002 223.889 54.4002 223.789 54.6002C223.789 54.8002 223.689 54.9002 223.489 54.9002C223.389 55.0002 223.089 55.0002 222.889 55.0002V55.3002C223.189 55.3002 223.589 55.3002 223.889 55.3002C224.289 55.3002 224.589 55.3002 224.989 55.3002C225.389 55.3002 225.689 55.3002 225.989 55.3002C226.289 55.3002 226.589 55.3002 226.789 55.3002C227.189 55.3002 227.689 55.3002 228.289 55.3002C228.789 55.3002 229.289 55.3002 229.789 55.3002C229.789 55.0002 229.689 54.6002 229.689 54.3002C229.589 54.1002 229.589 53.8002 229.589 53.7002Z" fill="white"/>
</g>
<g id="Group_3">
<g id="Group_4">
<path id="Vector_34" d="M55.0891 32.5996C56.3891 36.3996 54.3891 36.9996 54.2891 36.9996H64.2891V36.8996C63.8891 36.8996 61.6891 36.1996 60.1891 31.6996L49.5891 0.599609H42.2891V0.699609L42.4891 0.899609C44.5891 3.29961 46.0891 6.09961 47.0891 9.09961L55.0891 32.5996Z" fill="white"/>
</g>
<path id="Vector_35" d="M41.9891 1.5C41.9891 1.5 43.1891 2.4 42.7891 4.4C41.7891 9.8 34.8891 17.7 41.3891 20.4C41.3891 20.4 37.2891 19.9 35.8891 26.6C34.4891 33.3 34.8891 38.3 28.2891 38.6C28.2891 38.6 35.6891 39.2 37.1891 34.3C38.5891 29.6 37.4891 19.9 47.3891 20.5C47.3891 20.5 39.9891 20.2 40.6891 15.6C41.6891 10.2 45.0891 3.6 41.9891 1.5Z" fill="white"/>
</g>
<g id="Group_5">
<path id="Vector_36" d="M170.289 8.59961C170.189 7.89961 169.789 1.49961 165.189 1.49961H157.089V17.6996H164.489C167.989 17.6996 168.289 14.1996 168.289 13.8996H168.389V22.6996H168.289C168.289 22.3996 167.989 18.7996 164.489 18.7996H157.089V35.9996H165.489C170.489 35.9996 170.989 29.1996 170.989 28.4996H171.089V36.9996H148.689C148.889 36.9996 151.089 36.5996 151.089 32.6996V4.89961C151.089 0.89961 148.989 0.599609 148.689 0.599609H170.289V8.59961Z" fill="white"/>
</g>
</g>
</g>
<defs>
<clipPath id="clip0_1368_10225">
<rect width="228.8" height="55.6" fill="white" transform="translate(0.889038)"/>
</clipPath>
</defs>
</svg>
