<svg width="17" height="16" viewBox="0 0 17 16" fill="none" xmlns="http://www.w3.org/2000/svg">
<g id="question (1) 1" clip-path="url(#clip0_1025_7944)">
<g id="Group">
<g id="Group_2">
<path id="Vector" d="M0.563196 14.4892L1.6616 11.2926C1.13329 10.2246 0.853883 9.03431 0.852008 7.83656C0.848821 5.774 1.64685 3.82372 3.09916 2.3451C4.55169 0.866197 6.48728 0.0337616 8.54931 0.0010429C9.62965 -0.0163008 10.678 0.182761 11.6667 0.592042C12.6204 0.986822 13.4756 1.55866 14.2086 2.29166C14.9416 3.02466 15.5134 3.87988 15.9082 4.83353C16.3175 5.82228 16.5163 6.87112 16.4992 7.95093C16.4666 10.013 15.6341 11.9486 14.1552 13.4011C12.6795 14.8506 10.7342 15.6484 8.67609 15.6483C8.67206 15.6483 8.66781 15.6483 8.66377 15.6483C7.46603 15.6465 6.27569 15.367 5.20772 14.8387L2.01107 15.9371C1.88813 15.9794 1.76213 16 1.63751 16C1.34144 16 1.05345 15.8837 0.835071 15.6652C0.52479 15.3549 0.420572 14.9043 0.563196 14.4892ZM1.50585 14.9945C1.53732 15.026 1.6047 15.0737 1.70285 15.04L5.09016 13.8761C5.14025 13.8589 5.19234 13.8503 5.24428 13.8503C5.32084 13.8503 5.39706 13.8689 5.46609 13.9054C6.44506 14.4233 7.55131 14.698 8.66528 14.6997C12.4012 14.7057 15.4916 11.6712 15.5508 7.9359C15.5805 6.05656 14.8657 4.29028 13.5378 2.96244C12.21 1.63463 10.4442 0.919885 8.56437 0.949603C4.82906 1.00882 1.79485 4.09766 1.80066 7.83509C1.80241 8.94909 2.07707 10.0553 2.59494 11.0342C2.65626 11.1501 2.66685 11.2862 2.62426 11.4102L1.46032 14.7975C1.4266 14.8956 1.47435 14.963 1.50585 14.9945Z" fill="#242424"/>
</g>
</g>
<g id="Group_3">
<g id="Group_4">
<path id="Vector_2" d="M8.24717 11.3359C7.99908 11.3359 7.76139 11.5541 7.77286 11.8102C7.78436 12.0672 7.98127 12.2846 8.24717 12.2846C8.49527 12.2846 8.73296 12.0664 8.72149 11.8102C8.70999 11.5532 8.51308 11.3359 8.24717 11.3359Z" fill="#242424"/>
</g>
</g>
<g id="Group_5">
<g id="Group_6">
<path id="Vector_3" d="M8.24729 3.99023C6.94607 3.99023 5.88745 5.04886 5.88745 6.35007C5.88745 6.61201 6.09983 6.82439 6.36176 6.82439C6.6237 6.82439 6.83608 6.61201 6.83608 6.35007C6.83608 5.57195 7.46917 4.93886 8.24729 4.93886C9.02542 4.93886 9.65851 5.57195 9.65851 6.35007C9.65851 7.1282 9.02542 7.76129 8.24729 7.76129C7.98535 7.76129 7.77298 7.97366 7.77298 8.2356V10.1701C7.77298 10.4321 7.98535 10.6444 8.24729 10.6444C8.50923 10.6444 8.7216 10.4321 8.7216 10.1701V8.66201C9.79626 8.44185 10.6071 7.48888 10.6071 6.35007C10.6071 5.04886 9.54851 3.99023 8.24729 3.99023Z" fill="#242424"/>
</g>
</g>
</g>
<defs>
<clipPath id="clip0_1025_7944">
<rect width="16" height="16" fill="white" transform="translate(0.5)"/>
</clipPath>
</defs>
</svg>
