<svg width="16" height="18" viewBox="0 0 16 18" fill="none" xmlns="http://www.w3.org/2000/svg">
<g id="search">
<path id="Shape" fill-rule="evenodd" clip-rule="evenodd" d="M11.8125 11.7762L15.7567 15.9843C16.0904 16.3403 16.0794 16.9079 15.7326 17.2502C15.5694 17.4114 15.3544 17.5 15.1278 17.5C14.8883 17.5 14.6649 17.4024 14.4988 17.2255L10.5246 12.9854C9.39609 13.799 8.07619 14.2275 6.69113 14.2275C3.0017 14.2275 0 11.1484 0 7.36374C0 3.57913 3.0017 0.5 6.69113 0.5C10.3806 0.5 13.3823 3.57913 13.3823 7.36374C13.3823 8.98359 12.8266 10.5396 11.8125 11.7762ZM11.6373 7.36422C11.6373 4.56679 9.41878 2.29102 6.69171 2.29102C3.96464 2.29102 1.74609 4.56679 1.74609 7.36422C1.74609 10.1616 3.96464 12.4374 6.69171 12.4374C9.41878 12.4374 11.6373 10.1616 11.6373 7.36422Z" fill="#242424"/>
</g>
</svg>
