<svg width="16" height="16" viewBox="0 0 16 16" fill="none" xmlns="http://www.w3.org/2000/svg">
<path fill-rule="evenodd" clip-rule="evenodd" d="M7.90409 0.240967C6.47608 0.240967 5.15009 0.600963 3.92609 1.32097C2.73808 2.01697 1.79609 2.95896 1.10009 4.14697C0.392082 5.37097 0.0380859 6.69696 0.0380859 8.12497C0.0380859 9.55297 0.392082 10.879 1.10009 12.103C1.79609 13.291 2.73808 14.233 3.92609 14.929C5.15009 15.649 6.47608 16.006 7.90409 16C9.33209 15.994 10.6581 15.637 11.8821 14.929C13.0701 14.233 14.0121 13.291 14.7081 12.103C15.4161 10.879 15.7731 9.55297 15.7791 8.12497C15.7851 6.69696 15.4281 5.37097 14.7081 4.14697C14.0121 2.95896 13.0701 2.01697 11.8821 1.32097C10.6581 0.612963 9.33209 0.258967 7.90409 0.258967V0.240967ZM12.7281 4.32697C13.1241 4.83097 13.4331 5.37996 13.6551 5.97397C13.8771 6.56797 14.0061 7.18896 14.0421 7.83697C13.1661 7.64497 12.3261 7.54897 11.5221 7.54897C10.9221 7.54897 10.3281 7.60297 9.74009 7.71097C9.62009 7.42297 9.48209 7.10497 9.32609 6.75697C10.7061 6.14496 11.8401 5.33497 12.7281 4.32697ZM7.90409 1.98697C8.61209 1.98697 9.29308 2.10397 9.94709 2.33797C10.6011 2.57197 11.1981 2.90496 11.7381 3.33697C10.9941 4.22497 9.98609 4.94496 8.71409 5.49697C8.06608 4.22496 7.35809 3.10297 6.59009 2.13097C7.03409 2.03497 7.47208 1.98697 7.90409 1.98697ZM5.18609 2.61697C5.95409 3.51697 6.68608 4.63296 7.38209 5.96497C6.54208 6.21697 5.64209 6.39697 4.68209 6.50497C3.95008 6.60097 3.23009 6.64897 2.52209 6.64897L1.94609 6.63097C2.16209 5.75496 2.55508 4.96597 3.12509 4.26397C3.69509 3.56196 4.38208 3.01297 5.18609 2.61697ZM1.76609 8.12497C1.76609 8.10097 1.76609 8.07097 1.76609 8.03497C1.97009 8.04697 2.19208 8.05297 2.43209 8.05297C4.5081 8.04097 6.36808 7.77097 8.01209 7.24297C8.14409 7.53097 8.26409 7.80097 8.37209 8.05297C7.08808 8.48497 5.93609 9.16896 4.91609 10.105C4.25608 10.705 3.69209 11.365 3.22409 12.085C2.75608 11.533 2.39609 10.921 2.14409 10.249C1.89208 9.57696 1.76609 8.86897 1.76609 8.12497ZM7.90409 14.263C7.23208 14.263 6.58709 14.158 5.96909 13.948C5.35108 13.738 4.77809 13.441 4.25009 13.057C4.63409 12.433 5.10808 11.851 5.67209 11.311C6.62009 10.399 7.68808 9.75097 8.87609 9.36697C9.38009 10.795 9.78208 12.295 10.0821 13.867C9.37408 14.131 8.64809 14.263 7.90409 14.263ZM11.3781 13.183C11.0901 11.755 10.7121 10.375 10.2441 9.04297C10.6641 8.98297 11.0841 8.95297 11.5041 8.95297H11.5221C12.2781 8.95297 13.0821 9.04897 13.9341 9.24097C13.7901 10.057 13.4931 10.804 13.0431 11.482C12.5931 12.16 12.0381 12.727 11.3781 13.183Z" fill="#919296"/>
</svg>
