<svg width="16" height="14" viewBox="0 0 16 14" fill="none" xmlns="http://www.w3.org/2000/svg">
<path fill-rule="evenodd" clip-rule="evenodd" d="M14.0503 2.75544C14.3863 2.55143 14.6773 2.29644 14.9233 1.99044C15.1693 1.68443 15.3523 1.33944 15.4723 0.955436C14.8363 1.33944 14.1523 1.60343 13.4203 1.74744C13.1203 1.42343 12.7663 1.17144 12.3583 0.991436C11.9503 0.811435 11.5183 0.721436 11.0623 0.721436C10.4863 0.721436 9.9493 0.868434 9.4513 1.16244C8.95329 1.45644 8.5603 1.84943 8.2723 2.34144C7.9843 2.83344 7.8403 3.37343 7.8403 3.96144C7.8403 4.21344 7.8643 4.45943 7.9123 4.69944C6.59229 4.62744 5.3503 4.29144 4.1863 3.69144C3.04629 3.10343 2.0683 2.31144 1.2523 1.31544C0.964296 1.81944 0.820297 2.35943 0.820297 2.93544C0.820297 3.48744 0.949296 4.00043 1.2073 4.47444C1.4653 4.94844 1.81629 5.33543 2.2603 5.63544C1.73229 5.62344 1.2403 5.48544 0.784297 5.22144V5.27544C0.796297 5.77944 0.913296 6.25643 1.1353 6.70644C1.3573 7.15644 1.66629 7.53443 2.0623 7.84044C2.4583 8.14644 2.89629 8.34743 3.3763 8.44344C3.1003 8.51544 2.8183 8.55144 2.5303 8.55144C2.3263 8.55144 2.1283 8.53344 1.9363 8.49744C2.1403 9.14544 2.51829 9.67643 3.0703 10.0904C3.6223 10.5044 4.24629 10.7234 4.9423 10.7474C4.37829 11.1794 3.7543 11.5154 3.0703 11.7554C2.38629 11.9954 1.6723 12.1154 0.928297 12.1154C0.664296 12.1154 0.406298 12.1034 0.154297 12.0794C0.886301 12.5474 1.66629 12.9014 2.4943 13.1414C3.3463 13.3934 4.22229 13.5194 5.1223 13.5194C6.5383 13.5194 7.85229 13.2434 9.0643 12.6914C10.1683 12.1754 11.1283 11.4554 11.9443 10.5314C12.7003 9.66743 13.2883 8.68344 13.7083 7.57944C14.1043 6.49943 14.3023 5.41944 14.3023 4.33944V3.92544C14.9383 3.45743 15.4783 2.89344 15.9223 2.23344C15.3343 2.49744 14.7103 2.67143 14.0503 2.75544Z" fill="#919296"/>
</svg>
