<svg width="17" height="16" viewBox="0 0 17 16" fill="none" xmlns="http://www.w3.org/2000/svg">
<path fill-rule="evenodd" clip-rule="evenodd" d="M11.9033 5.87912H16.4573V6.09512V12.9531C16.4573 13.5051 16.3193 14.0151 16.0433 14.4831C15.7673 14.9511 15.3953 15.3201 14.9273 15.5901C14.4593 15.8601 13.9493 15.9951 13.3973 15.9951H3.8573C3.30529 16.0071 2.7953 15.8751 2.3273 15.5991C1.85929 15.3231 1.4843 14.9511 1.2023 14.4831C0.920295 14.0151 0.779297 13.5051 0.779297 12.9531V5.89712H5.3333C4.56529 7.06112 4.39729 8.27311 4.8293 9.53312C5.1293 10.3851 5.66329 11.0571 6.4313 11.5491C6.9353 11.8851 7.47829 12.0921 8.0603 12.1701C8.6423 12.2481 9.21529 12.2031 9.7793 12.0351C10.3433 11.8671 10.8473 11.5851 11.2913 11.1891C11.7353 10.7931 12.0713 10.3131 12.2993 9.74912C12.5513 9.13711 12.6533 8.51312 12.6053 7.87712C12.5453 7.18111 12.3113 6.51512 11.9033 5.87912ZM2.7233 4.13312V0.731117C2.7233 0.599117 2.7353 0.518117 2.7593 0.488117C2.7833 0.458117 2.8673 0.419117 3.0113 0.371117L3.1733 0.335117V4.13312H3.8213V0.263117H4.2353V4.13312H4.8833V0.245117H13.3973C13.9373 0.245117 14.4383 0.380116 14.9003 0.650117C15.3623 0.920119 15.7343 1.28311 16.0163 1.73912C16.2983 2.19512 16.4453 2.68711 16.4573 3.21512C16.4693 3.51512 16.4753 3.87512 16.4753 4.29512C16.4633 5.18312 16.4573 5.54912 16.4573 5.39312H11.6333C11.5253 5.39312 11.4413 5.35712 11.3813 5.28512C10.8533 4.80511 10.2593 4.48112 9.5993 4.31312C8.93929 4.14512 8.2793 4.14812 7.6193 4.32212C6.95929 4.49612 6.3653 4.82311 5.8373 5.30312C5.7773 5.36312 5.7173 5.39312 5.6573 5.39312H0.887297L0.797297 5.37512V4.69112C0.785297 4.83512 0.779297 4.55912 0.779297 3.86312C0.779297 3.53912 0.791297 3.26312 0.815297 3.03512C0.875297 2.15911 1.27729 1.43312 2.0213 0.857117L2.0933 0.839117V4.13312H2.7233ZM15.0353 2.89112C15.0353 2.89112 15.0353 2.75312 15.0353 2.47712V2.06312C15.0353 1.90712 14.9903 1.78412 14.9003 1.69412C14.8103 1.60412 14.6933 1.55912 14.5493 1.55912C13.9973 1.54712 13.4393 1.54712 12.8753 1.55912C12.7193 1.55912 12.5993 1.60712 12.5153 1.70312C12.4313 1.79912 12.3893 1.92512 12.3893 2.08112V3.73712C12.3893 3.89312 12.4343 4.01612 12.5243 4.10612C12.6143 4.19612 12.7313 4.24112 12.8753 4.24112H14.5313C14.6873 4.24112 14.8103 4.19612 14.9003 4.10612C14.9903 4.01612 15.0353 3.89312 15.0353 3.73712V2.89112ZM8.6273 11.2791C8.06329 11.2791 7.5413 11.1441 7.0613 10.8741C6.58129 10.6041 6.2033 10.2321 5.9273 9.75812C5.6513 9.28411 5.5133 8.76812 5.5133 8.21012C5.5133 7.65211 5.6513 7.13612 5.9273 6.66212C6.2033 6.18812 6.58129 5.81012 7.0613 5.52812C7.5413 5.24612 8.06029 5.10512 8.6183 5.10512C9.1763 5.10512 9.6923 5.24612 10.1663 5.52812C10.6403 5.81012 11.0153 6.18812 11.2913 6.66212C11.5673 7.13612 11.7053 7.65211 11.7053 8.21012C11.7053 8.76812 11.5673 9.28411 11.2913 9.75812C11.0153 10.2321 10.6403 10.6041 10.1663 10.8741C9.6923 11.1441 9.1793 11.2791 8.6273 11.2791ZM10.8953 8.20112C10.8953 7.79312 10.7933 7.41212 10.5893 7.05812C10.3853 6.70412 10.1093 6.42512 9.7613 6.22112C9.41329 6.01712 9.0323 5.91512 8.6183 5.91512C8.20429 5.91512 7.8233 6.01712 7.4753 6.22112C7.1273 6.42512 6.8513 6.70112 6.6473 7.04912C6.4433 7.39712 6.3413 7.77812 6.3413 8.19212C6.3413 8.60612 6.4433 8.98712 6.6473 9.33512C6.8513 9.68312 7.1273 9.96212 7.4753 10.1721C7.8233 10.3821 8.20429 10.4871 8.6183 10.4871C9.0323 10.4871 9.41329 10.3851 9.7613 10.1811C10.1093 9.97712 10.3853 9.70112 10.5893 9.35312C10.7933 9.00512 10.8953 8.62112 10.8953 8.20112Z" fill="#919296"/>
</svg>
