<svg width="48" height="42" viewBox="0 0 48 42" fill="none" xmlns="http://www.w3.org/2000/svg">
<path id="&#226;&#128;&#156;" d="M11.8058 42C8.18123 42 5.28155 40.7037 3.1068 38.1111C1.0356 35.4148 0 31.9407 0 27.6889C0 21.8815 1.5534 16.6444 4.66019 11.9778C7.87055 7.2074 12.7379 3.21481 19.2621 0L20.9709 2.48888C17.8641 4.35555 15.0162 7 12.4272 10.4222C9.94175 13.7407 8.69903 17.1111 8.69903 20.5333C8.69903 21.4667 8.95793 22.2444 9.47573 22.8667C9.99353 23.3852 10.7702 23.6444 11.8058 23.6444C14.3948 23.6444 16.5696 24.5778 18.3301 26.4444C20.1942 28.2074 21.1262 30.3852 21.1262 32.9778C21.1262 35.5704 20.1942 37.7481 18.3301 39.5111C16.5696 41.1704 14.3948 42 11.8058 42ZM38.6796 42C35.055 42 32.1553 40.7037 29.9806 38.1111C27.9094 35.4148 26.8738 31.9407 26.8738 27.6889C26.8738 21.8815 28.4272 16.6444 31.534 11.9778C34.7443 7.2074 39.6117 3.21481 46.1359 0L47.8447 2.48888C44.7379 4.35555 41.89 7 39.301 10.4222C36.8155 13.7407 35.5728 17.1111 35.5728 20.5333C35.5728 21.4667 35.8317 22.2444 36.3495 22.8667C36.8673 23.3852 37.644 23.6444 38.6796 23.6444C41.2686 23.6444 43.4434 24.5778 45.2039 26.4444C47.068 28.2074 48 30.3852 48 32.9778C48 35.5704 47.068 37.7481 45.2039 39.5111C43.4434 41.1704 41.2686 42 38.6796 42Z" fill="#919296"/>
</svg>
